<svg width="1072" height="699" viewBox="0 0 1072 699" fill="none" xmlns="http://www.w3.org/2000/svg">
<g filter="url(#filter0_d_9_305)">
<g clip-path="url(#clip0_9_305)">
<rect x="30.5474" y="26.4539" width="1011" height="638" rx="37.5" fill="#333333"/>
<path d="M46.1338 75.4468L33.1608 52.9771L46.1338 30.5073H72.0796L85.0525 52.9771L72.0796 75.4468H46.1338Z" stroke="#A28800"/>
<path d="M99.1802 75.4468L86.2072 52.9771L99.1802 30.5073H125.126L138.099 52.9771L125.126 75.4468H99.1802Z" stroke="#A28800"/>
<path d="M152.227 75.4468L139.254 52.9771L152.227 30.5073H178.172L191.145 52.9771L178.172 75.4468H152.227Z" stroke="#A28800"/>
<path d="M205.273 75.4468L192.3 52.9771L205.273 30.5073H231.219L244.192 52.9771L231.219 75.4468H205.273Z" stroke="#A28800"/>
<path d="M258.319 75.4468L245.346 52.9771L258.319 30.5073H284.265L297.238 52.9771L284.265 75.4468H258.319Z" stroke="#A28800"/>
<path d="M311.366 75.4468L298.393 52.9771L311.366 30.5073H337.312L350.284 52.9771L337.312 75.4468H311.366Z" stroke="#A28800"/>
<path d="M364.412 75.4468L351.439 52.9771L364.412 30.5073H390.358L403.331 52.9771L390.358 75.4468H364.412Z" stroke="#A28800"/>
<path d="M417.458 75.4468L404.486 52.9771L417.458 30.5073H443.404L456.377 52.9771L443.404 75.4468H417.458Z" stroke="#A28800"/>
<path d="M470.505 75.4468L457.532 52.9771L470.505 30.5073H496.451L509.424 52.9771L496.451 75.4468H470.505Z" stroke="#A28800"/>
<path d="M523.551 75.4468L510.578 52.9771L523.551 30.5073H549.497L562.47 52.9771L549.497 75.4468H523.551Z" stroke="#A28800"/>
<path d="M576.598 75.4468L563.625 52.9771L576.598 30.5073H602.543L615.516 52.9771L602.543 75.4468H576.598Z" stroke="#A28800"/>
<path d="M629.644 75.4468L616.671 52.9771L629.644 30.5073H655.59L668.563 52.9771L655.59 75.4468H629.644Z" stroke="#A28800"/>
<path d="M682.69 75.4468L669.717 52.9771L682.69 30.5073H708.636L721.609 52.9771L708.636 75.4468H682.69Z" stroke="#A28800"/>
<path d="M735.737 75.4468L722.764 52.9771L735.737 30.5073H761.683L774.656 52.9771L761.683 75.4468H735.737Z" stroke="#A28800"/>
<path d="M788.783 75.4468L775.81 52.9771L788.783 30.5073H814.729L827.702 52.9771L814.729 75.4468H788.783Z" stroke="#A28800"/>
<path d="M841.83 75.4468L828.857 52.9771L841.83 30.5073H867.775L880.748 52.9771L867.775 75.4468H841.83Z" stroke="#A28800"/>
<path d="M894.876 75.4468L881.903 52.9771L894.876 30.5073H920.822L933.795 52.9771L920.822 75.4468H894.876Z" stroke="#A28800"/>
<path d="M947.922 75.4468L934.949 52.9771L947.922 30.5073H973.868L986.841 52.9771L973.868 75.4468H947.922Z" stroke="#A28800"/>
<path d="M1000.97 75.4468L987.996 52.9771L1000.97 30.5073H1026.91L1039.89 52.9771L1026.91 75.4468H1000.97Z" stroke="#A28800"/>
<path d="M1054.02 75.4468L1041.04 52.9771L1054.02 30.5073H1079.96L1092.93 52.9771L1079.96 75.4468H1054.02Z" stroke="#A28800"/>
<path d="M46.1338 128.493L33.1608 106.023L46.1338 83.5537H72.0796L85.0525 106.023L72.0796 128.493H46.1338Z" stroke="#A28800"/>
<path d="M99.1802 128.493L86.2072 106.023L99.1802 83.5537H125.126L138.099 106.023L125.126 128.493H99.1802Z" stroke="#A28800"/>
<path d="M152.227 128.493L139.254 106.023L152.227 83.5537H178.172L191.145 106.023L178.172 128.493H152.227Z" stroke="#A28800"/>
<path d="M205.273 128.493L192.3 106.023L205.273 83.5537H231.219L244.192 106.023L231.219 128.493H205.273Z" stroke="#A28800"/>
<path d="M258.319 128.493L245.346 106.023L258.319 83.5537H284.265L297.238 106.023L284.265 128.493H258.319Z" stroke="#A28800"/>
<path d="M311.366 128.493L298.393 106.023L311.366 83.5537H337.312L350.284 106.023L337.312 128.493H311.366Z" stroke="#A28800"/>
<path d="M364.412 128.493L351.439 106.023L364.412 83.5537H390.358L403.331 106.023L390.358 128.493H364.412Z" stroke="#A28800"/>
<path d="M417.458 128.493L404.486 106.023L417.458 83.5537H443.404L456.377 106.023L443.404 128.493H417.458Z" stroke="#A28800"/>
<path d="M470.505 128.493L457.532 106.023L470.505 83.5537H496.451L509.424 106.023L496.451 128.493H470.505Z" stroke="#A28800"/>
<path d="M523.551 128.493L510.578 106.023L523.551 83.5537H549.497L562.47 106.023L549.497 128.493H523.551Z" stroke="#A28800"/>
<path d="M576.598 128.493L563.625 106.023L576.598 83.5537H602.543L615.516 106.023L602.543 128.493H576.598Z" stroke="#A28800"/>
<path d="M629.644 128.493L616.671 106.023L629.644 83.5537H655.59L668.563 106.023L655.59 128.493H629.644Z" stroke="#A28800"/>
<path d="M682.69 128.493L669.717 106.023L682.69 83.5537H708.636L721.609 106.023L708.636 128.493H682.69Z" stroke="#A28800"/>
<path d="M735.737 128.493L722.764 106.023L735.737 83.5537H761.683L774.656 106.023L761.683 128.493H735.737Z" stroke="#A28800"/>
<path d="M788.783 128.493L775.81 106.023L788.783 83.5537H814.729L827.702 106.023L814.729 128.493H788.783Z" stroke="#A28800"/>
<path d="M841.83 128.493L828.857 106.023L841.83 83.5537H867.775L880.748 106.023L867.775 128.493H841.83Z" stroke="#A28800"/>
<path d="M894.876 128.493L881.903 106.023L894.876 83.5537H920.822L933.795 106.023L920.822 128.493H894.876Z" stroke="#A28800"/>
<path d="M947.922 128.493L934.949 106.023L947.922 83.5537H973.868L986.841 106.023L973.868 128.493H947.922Z" stroke="#A28800"/>
<path d="M1000.97 128.493L987.996 106.023L1000.97 83.5537H1026.91L1039.89 106.023L1026.91 128.493H1000.97Z" stroke="#A28800"/>
<path d="M1054.02 128.493L1041.04 106.023L1054.02 83.5537H1079.96L1092.93 106.023L1079.96 128.493H1054.02Z" stroke="#A28800"/>
<path d="M46.1338 181.54L33.1608 159.07L46.1338 136.6H72.0796L85.0525 159.07L72.0796 181.54H46.1338Z" stroke="#A28800"/>
<path d="M99.1802 181.54L86.2072 159.07L99.1802 136.6H125.126L138.099 159.07L125.126 181.54H99.1802Z" stroke="#A28800"/>
<path d="M152.227 181.54L139.254 159.07L152.227 136.6H178.172L191.145 159.07L178.172 181.54H152.227Z" stroke="#A28800"/>
<path d="M205.273 181.54L192.3 159.07L205.273 136.6H231.219L244.192 159.07L231.219 181.54H205.273Z" stroke="#A28800"/>
<path d="M258.319 181.54L245.346 159.07L258.319 136.6H284.265L297.238 159.07L284.265 181.54H258.319Z" stroke="#A28800"/>
<path d="M311.366 181.54L298.393 159.07L311.366 136.6H337.312L350.284 159.07L337.312 181.54H311.366Z" stroke="#A28800"/>
<path d="M364.412 181.54L351.439 159.07L364.412 136.6H390.358L403.331 159.07L390.358 181.54H364.412Z" stroke="#A28800"/>
<path d="M417.458 181.54L404.486 159.07L417.458 136.6H443.404L456.377 159.07L443.404 181.54H417.458Z" stroke="#A28800"/>
<path d="M470.505 181.54L457.532 159.07L470.505 136.6H496.451L509.424 159.07L496.451 181.54H470.505Z" stroke="#A28800"/>
<path d="M523.551 181.54L510.578 159.07L523.551 136.6H549.497L562.47 159.07L549.497 181.54H523.551Z" stroke="#A28800"/>
<path d="M576.598 181.54L563.625 159.07L576.598 136.6H602.543L615.516 159.07L602.543 181.54H576.598Z" stroke="#A28800"/>
<path d="M629.644 181.54L616.671 159.07L629.644 136.6H655.59L668.563 159.07L655.59 181.54H629.644Z" stroke="#A28800"/>
<path d="M682.69 181.54L669.717 159.07L682.69 136.6H708.636L721.609 159.07L708.636 181.54H682.69Z" stroke="#A28800"/>
<path d="M735.737 181.54L722.764 159.07L735.737 136.6H761.683L774.656 159.07L761.683 181.54H735.737Z" stroke="#A28800"/>
<path d="M788.783 181.54L775.81 159.07L788.783 136.6H814.729L827.702 159.07L814.729 181.54H788.783Z" stroke="#A28800"/>
<path d="M841.83 181.54L828.857 159.07L841.83 136.6H867.775L880.748 159.07L867.775 181.54H841.83Z" stroke="#A28800"/>
<path d="M894.876 181.54L881.903 159.07L894.876 136.6H920.822L933.795 159.07L920.822 181.54H894.876Z" stroke="#A28800"/>
<path d="M947.922 181.54L934.949 159.07L947.922 136.6H973.868L986.841 159.07L973.868 181.54H947.922Z" stroke="#A28800"/>
<path d="M1000.97 181.54L987.996 159.07L1000.97 136.6H1026.91L1039.89 159.07L1026.91 181.54H1000.97Z" stroke="#A28800"/>
<path d="M1054.02 181.54L1041.04 159.07L1054.02 136.6H1079.96L1092.93 159.07L1079.96 181.54H1054.02Z" stroke="#A28800"/>
<path d="M46.1338 234.586L33.1608 212.116L46.1338 189.646H72.0796L85.0525 212.116L72.0796 234.586H46.1338Z" stroke="#A28800"/>
<path d="M99.1802 234.586L86.2072 212.116L99.1802 189.646H125.126L138.099 212.116L125.126 234.586H99.1802Z" stroke="#A28800"/>
<path d="M152.227 234.586L139.254 212.116L152.227 189.646H178.172L191.145 212.116L178.172 234.586H152.227Z" stroke="#A28800"/>
<path d="M205.273 234.586L192.3 212.116L205.273 189.646H231.219L244.192 212.116L231.219 234.586H205.273Z" stroke="#A28800"/>
<path d="M258.319 234.586L245.346 212.116L258.319 189.646H284.265L297.238 212.116L284.265 234.586H258.319Z" stroke="#A28800"/>
<path d="M311.366 234.586L298.393 212.116L311.366 189.646H337.312L350.284 212.116L337.312 234.586H311.366Z" stroke="#A28800"/>
<path d="M364.412 234.586L351.439 212.116L364.412 189.646H390.358L403.331 212.116L390.358 234.586H364.412Z" stroke="#A28800"/>
<path d="M417.458 234.586L404.486 212.116L417.458 189.646H443.404L456.377 212.116L443.404 234.586H417.458Z" stroke="#A28800"/>
<path d="M470.505 234.586L457.532 212.116L470.505 189.646H496.451L509.424 212.116L496.451 234.586H470.505Z" stroke="#A28800"/>
<path d="M523.551 234.586L510.578 212.116L523.551 189.646H549.497L562.47 212.116L549.497 234.586H523.551Z" stroke="#A28800"/>
<path d="M576.598 234.586L563.625 212.116L576.598 189.646H602.543L615.516 212.116L602.543 234.586H576.598Z" stroke="#A28800"/>
<path d="M629.644 234.586L616.671 212.116L629.644 189.646H655.59L668.563 212.116L655.59 234.586H629.644Z" stroke="#A28800"/>
<path d="M682.69 234.586L669.717 212.116L682.69 189.646H708.636L721.609 212.116L708.636 234.586H682.69Z" stroke="#A28800"/>
<path d="M735.737 234.586L722.764 212.116L735.737 189.646H761.683L774.656 212.116L761.683 234.586H735.737Z" stroke="#A28800"/>
<path d="M788.783 234.586L775.81 212.116L788.783 189.646H814.729L827.702 212.116L814.729 234.586H788.783Z" stroke="#A28800"/>
<path d="M841.83 234.586L828.857 212.116L841.83 189.646H867.775L880.748 212.116L867.775 234.586H841.83Z" stroke="#A28800"/>
<path d="M894.876 234.586L881.903 212.116L894.876 189.646H920.822L933.795 212.116L920.822 234.586H894.876Z" stroke="#A28800"/>
<path d="M947.922 234.586L934.949 212.116L947.922 189.646H973.868L986.841 212.116L973.868 234.586H947.922Z" stroke="#A28800"/>
<path d="M1000.97 234.586L987.996 212.116L1000.97 189.646H1026.91L1039.89 212.116L1026.91 234.586H1000.97Z" stroke="#A28800"/>
<path d="M1054.02 234.586L1041.04 212.116L1054.02 189.646H1079.96L1092.93 212.116L1079.96 234.586H1054.02Z" stroke="#A28800"/>
<path d="M46.1338 287.632L33.1608 265.163L46.1338 242.693H72.0796L85.0525 265.163L72.0796 287.632H46.1338Z" stroke="#A28800"/>
<path d="M99.1802 287.632L86.2072 265.163L99.1802 242.693H125.126L138.099 265.163L125.126 287.632H99.1802Z" stroke="#A28800"/>
<path d="M152.227 287.632L139.254 265.163L152.227 242.693H178.172L191.145 265.163L178.172 287.632H152.227Z" stroke="#A28800"/>
<path d="M205.273 287.632L192.3 265.163L205.273 242.693H231.219L244.192 265.163L231.219 287.632H205.273Z" stroke="#A28800"/>
<path d="M258.319 287.632L245.346 265.163L258.319 242.693H284.265L297.238 265.163L284.265 287.632H258.319Z" stroke="#A28800"/>
<path d="M311.366 287.632L298.393 265.163L311.366 242.693H337.312L350.284 265.163L337.312 287.632H311.366Z" stroke="#A28800"/>
<path d="M364.412 287.632L351.439 265.163L364.412 242.693H390.358L403.331 265.163L390.358 287.632H364.412Z" stroke="#A28800"/>
<path d="M417.458 287.632L404.486 265.163L417.458 242.693H443.404L456.377 265.163L443.404 287.632H417.458Z" stroke="#A28800"/>
<path d="M470.505 287.632L457.532 265.163L470.505 242.693H496.451L509.424 265.163L496.451 287.632H470.505Z" stroke="#A28800"/>
<path d="M523.551 287.632L510.578 265.163L523.551 242.693H549.497L562.47 265.163L549.497 287.632H523.551Z" stroke="#A28800"/>
<path d="M576.598 287.632L563.625 265.163L576.598 242.693H602.543L615.516 265.163L602.543 287.632H576.598Z" stroke="#A28800"/>
<path d="M629.644 287.632L616.671 265.163L629.644 242.693H655.59L668.563 265.163L655.59 287.632H629.644Z" stroke="#A28800"/>
<path d="M682.69 287.632L669.717 265.163L682.69 242.693H708.636L721.609 265.163L708.636 287.632H682.69Z" stroke="#A28800"/>
<path d="M735.737 287.632L722.764 265.163L735.737 242.693H761.683L774.656 265.163L761.683 287.632H735.737Z" stroke="#A28800"/>
<path d="M788.783 287.632L775.81 265.163L788.783 242.693H814.729L827.702 265.163L814.729 287.632H788.783Z" stroke="#A28800"/>
<path d="M841.83 287.632L828.857 265.163L841.83 242.693H867.775L880.748 265.163L867.775 287.632H841.83Z" stroke="#A28800"/>
<path d="M894.876 287.632L881.903 265.163L894.876 242.693H920.822L933.795 265.163L920.822 287.632H894.876Z" stroke="#A28800"/>
<path d="M947.922 287.632L934.949 265.163L947.922 242.693H973.868L986.841 265.163L973.868 287.632H947.922Z" stroke="#A28800"/>
<path d="M1000.97 287.632L987.996 265.163L1000.97 242.693H1026.91L1039.89 265.163L1026.91 287.632H1000.97Z" stroke="#A28800"/>
<path d="M1054.02 287.632L1041.04 265.163L1054.02 242.693H1079.96L1092.93 265.163L1079.96 287.632H1054.02Z" stroke="#A28800"/>
<path d="M46.1338 340.679L33.1608 318.209L46.1338 295.739H72.0796L85.0525 318.209L72.0796 340.679H46.1338Z" stroke="#A28800"/>
<path d="M99.1802 340.679L86.2072 318.209L99.1802 295.739H125.126L138.099 318.209L125.126 340.679H99.1802Z" stroke="#A28800"/>
<path d="M152.227 340.679L139.254 318.209L152.227 295.739H178.172L191.145 318.209L178.172 340.679H152.227Z" stroke="#A28800"/>
<path d="M205.273 340.679L192.3 318.209L205.273 295.739H231.219L244.192 318.209L231.219 340.679H205.273Z" stroke="#A28800"/>
<path d="M258.319 340.679L245.346 318.209L258.319 295.739H284.265L297.238 318.209L284.265 340.679H258.319Z" stroke="#A28800"/>
<path d="M311.366 340.679L298.393 318.209L311.366 295.739H337.312L350.284 318.209L337.312 340.679H311.366Z" stroke="#A28800"/>
<path d="M364.412 340.679L351.439 318.209L364.412 295.739H390.358L403.331 318.209L390.358 340.679H364.412Z" stroke="#A28800"/>
<path d="M417.458 340.679L404.486 318.209L417.458 295.739H443.404L456.377 318.209L443.404 340.679H417.458Z" stroke="#A28800"/>
<path d="M470.505 340.679L457.532 318.209L470.505 295.739H496.451L509.424 318.209L496.451 340.679H470.505Z" stroke="#A28800"/>
<path d="M523.551 340.679L510.578 318.209L523.551 295.739H549.497L562.47 318.209L549.497 340.679H523.551Z" stroke="#A28800"/>
<path d="M576.598 340.679L563.625 318.209L576.598 295.739H602.543L615.516 318.209L602.543 340.679H576.598Z" stroke="#A28800"/>
<path d="M629.644 340.679L616.671 318.209L629.644 295.739H655.59L668.563 318.209L655.59 340.679H629.644Z" stroke="#A28800"/>
<path d="M682.69 340.679L669.717 318.209L682.69 295.739H708.636L721.609 318.209L708.636 340.679H682.69Z" stroke="#A28800"/>
<path d="M735.737 340.679L722.764 318.209L735.737 295.739H761.683L774.656 318.209L761.683 340.679H735.737Z" stroke="#A28800"/>
<path d="M788.783 340.679L775.81 318.209L788.783 295.739H814.729L827.702 318.209L814.729 340.679H788.783Z" stroke="#A28800"/>
<path d="M841.83 340.679L828.857 318.209L841.83 295.739H867.775L880.748 318.209L867.775 340.679H841.83Z" stroke="#A28800"/>
<path d="M894.876 340.679L881.903 318.209L894.876 295.739H920.822L933.795 318.209L920.822 340.679H894.876Z" stroke="#A28800"/>
<path d="M947.922 340.679L934.949 318.209L947.922 295.739H973.868L986.841 318.209L973.868 340.679H947.922Z" stroke="#A28800"/>
<path d="M1000.97 340.679L987.996 318.209L1000.97 295.739H1026.91L1039.89 318.209L1026.91 340.679H1000.97Z" stroke="#A28800"/>
<path d="M1054.02 340.679L1041.04 318.209L1054.02 295.739H1079.96L1092.93 318.209L1079.96 340.679H1054.02Z" stroke="#A28800"/>
<path d="M46.1338 393.725L33.1608 371.255L46.1338 348.786H72.0796L85.0525 371.255L72.0796 393.725H46.1338Z" stroke="#A28800"/>
<path d="M99.1802 393.725L86.2072 371.255L99.1802 348.786H125.126L138.099 371.255L125.126 393.725H99.1802Z" stroke="#A28800"/>
<path d="M152.227 393.725L139.254 371.255L152.227 348.786H178.172L191.145 371.255L178.172 393.725H152.227Z" stroke="#A28800"/>
<path d="M205.273 393.725L192.3 371.255L205.273 348.786H231.219L244.192 371.255L231.219 393.725H205.273Z" stroke="#A28800"/>
<path d="M258.319 393.725L245.346 371.255L258.319 348.786H284.265L297.238 371.255L284.265 393.725H258.319Z" stroke="#A28800"/>
<path d="M311.366 393.725L298.393 371.255L311.366 348.786H337.312L350.284 371.255L337.312 393.725H311.366Z" stroke="#A28800"/>
<path d="M364.412 393.725L351.439 371.255L364.412 348.786H390.358L403.331 371.255L390.358 393.725H364.412Z" stroke="#A28800"/>
<path d="M417.458 393.725L404.486 371.255L417.458 348.786H443.404L456.377 371.255L443.404 393.725H417.458Z" stroke="#A28800"/>
<path d="M470.505 393.725L457.532 371.255L470.505 348.786H496.451L509.424 371.255L496.451 393.725H470.505Z" stroke="#A28800"/>
<path d="M523.551 393.725L510.578 371.255L523.551 348.786H549.497L562.47 371.255L549.497 393.725H523.551Z" stroke="#A28800"/>
<path d="M576.598 393.725L563.625 371.255L576.598 348.786H602.543L615.516 371.255L602.543 393.725H576.598Z" stroke="#A28800"/>
<path d="M629.644 393.725L616.671 371.255L629.644 348.786H655.59L668.563 371.255L655.59 393.725H629.644Z" stroke="#A28800"/>
<path d="M682.69 393.725L669.717 371.255L682.69 348.786H708.636L721.609 371.255L708.636 393.725H682.69Z" stroke="#A28800"/>
<path d="M735.737 393.725L722.764 371.255L735.737 348.786H761.683L774.656 371.255L761.683 393.725H735.737Z" stroke="#A28800"/>
<path d="M788.783 393.725L775.81 371.255L788.783 348.786H814.729L827.702 371.255L814.729 393.725H788.783Z" stroke="#A28800"/>
<path d="M841.83 393.725L828.857 371.255L841.83 348.786H867.775L880.748 371.255L867.775 393.725H841.83Z" stroke="#A28800"/>
<path d="M894.876 393.725L881.903 371.255L894.876 348.786H920.822L933.795 371.255L920.822 393.725H894.876Z" stroke="#A28800"/>
<path d="M947.922 393.725L934.949 371.255L947.922 348.786H973.868L986.841 371.255L973.868 393.725H947.922Z" stroke="#A28800"/>
<path d="M1000.97 393.725L987.996 371.255L1000.97 348.786H1026.91L1039.89 371.255L1026.91 393.725H1000.97Z" stroke="#A28800"/>
<path d="M1054.02 393.725L1041.04 371.255L1054.02 348.786H1079.96L1092.93 371.255L1079.96 393.725H1054.02Z" stroke="#A28800"/>
<path d="M46.1338 446.772L33.1608 424.302L46.1338 401.832H72.0796L85.0525 424.302L72.0796 446.772H46.1338Z" stroke="#A28800"/>
<path d="M99.1802 446.772L86.2072 424.302L99.1802 401.832H125.126L138.099 424.302L125.126 446.772H99.1802Z" stroke="#A28800"/>
<path d="M152.227 446.772L139.254 424.302L152.227 401.832H178.172L191.145 424.302L178.172 446.772H152.227Z" stroke="#A28800"/>
<path d="M205.273 446.772L192.3 424.302L205.273 401.832H231.219L244.192 424.302L231.219 446.772H205.273Z" stroke="#A28800"/>
<path d="M258.319 446.772L245.346 424.302L258.319 401.832H284.265L297.238 424.302L284.265 446.772H258.319Z" stroke="#A28800"/>
<path d="M311.366 446.772L298.393 424.302L311.366 401.832H337.312L350.284 424.302L337.312 446.772H311.366Z" stroke="#A28800"/>
<path d="M364.412 446.772L351.439 424.302L364.412 401.832H390.358L403.331 424.302L390.358 446.772H364.412Z" stroke="#A28800"/>
<path d="M417.458 446.772L404.486 424.302L417.458 401.832H443.404L456.377 424.302L443.404 446.772H417.458Z" stroke="#A28800"/>
<path d="M470.505 446.772L457.532 424.302L470.505 401.832H496.451L509.424 424.302L496.451 446.772H470.505Z" stroke="#A28800"/>
<path d="M523.551 446.772L510.578 424.302L523.551 401.832H549.497L562.47 424.302L549.497 446.772H523.551Z" stroke="#A28800"/>
<path d="M576.598 446.772L563.625 424.302L576.598 401.832H602.543L615.516 424.302L602.543 446.772H576.598Z" stroke="#A28800"/>
<path d="M629.644 446.772L616.671 424.302L629.644 401.832H655.59L668.563 424.302L655.59 446.772H629.644Z" stroke="#A28800"/>
<path d="M682.69 446.772L669.717 424.302L682.69 401.832H708.636L721.609 424.302L708.636 446.772H682.69Z" stroke="#A28800"/>
<path d="M735.737 446.772L722.764 424.302L735.737 401.832H761.683L774.656 424.302L761.683 446.772H735.737Z" stroke="#A28800"/>
<path d="M788.783 446.772L775.81 424.302L788.783 401.832H814.729L827.702 424.302L814.729 446.772H788.783Z" stroke="#A28800"/>
<path d="M841.83 446.772L828.857 424.302L841.83 401.832H867.775L880.748 424.302L867.775 446.772H841.83Z" stroke="#A28800"/>
<path d="M894.876 446.772L881.903 424.302L894.876 401.832H920.822L933.795 424.302L920.822 446.772H894.876Z" stroke="#A28800"/>
<path d="M947.922 446.772L934.949 424.302L947.922 401.832H973.868L986.841 424.302L973.868 446.772H947.922Z" stroke="#A28800"/>
<path d="M1000.97 446.772L987.996 424.302L1000.97 401.832H1026.91L1039.89 424.302L1026.91 446.772H1000.97Z" stroke="#A28800"/>
<path d="M1054.02 446.772L1041.04 424.302L1054.02 401.832H1079.96L1092.93 424.302L1079.96 446.772H1054.02Z" stroke="#A28800"/>
<path d="M46.1338 499.818L33.1608 477.348L46.1338 454.878H72.0796L85.0525 477.348L72.0796 499.818H46.1338Z" stroke="#A28800"/>
<path d="M99.1802 499.818L86.2072 477.348L99.1802 454.878H125.126L138.099 477.348L125.126 499.818H99.1802Z" stroke="#A28800"/>
<path d="M152.227 499.818L139.254 477.348L152.227 454.878H178.172L191.145 477.348L178.172 499.818H152.227Z" stroke="#A28800"/>
<path d="M205.273 499.818L192.3 477.348L205.273 454.878H231.219L244.192 477.348L231.219 499.818H205.273Z" stroke="#A28800"/>
<path d="M258.319 499.818L245.346 477.348L258.319 454.878H284.265L297.238 477.348L284.265 499.818H258.319Z" stroke="#A28800"/>
<path d="M311.366 499.818L298.393 477.348L311.366 454.878H337.312L350.284 477.348L337.312 499.818H311.366Z" stroke="#A28800"/>
<path d="M364.412 499.818L351.439 477.348L364.412 454.878H390.358L403.331 477.348L390.358 499.818H364.412Z" stroke="#A28800"/>
<path d="M417.458 499.818L404.486 477.348L417.458 454.878H443.404L456.377 477.348L443.404 499.818H417.458Z" stroke="#A28800"/>
<path d="M470.505 499.818L457.532 477.348L470.505 454.878H496.451L509.424 477.348L496.451 499.818H470.505Z" stroke="#A28800"/>
<path d="M523.551 499.818L510.578 477.348L523.551 454.878H549.497L562.47 477.348L549.497 499.818H523.551Z" stroke="#A28800"/>
<path d="M576.598 499.818L563.625 477.348L576.598 454.878H602.543L615.516 477.348L602.543 499.818H576.598Z" stroke="#A28800"/>
<path d="M629.644 499.818L616.671 477.348L629.644 454.878H655.59L668.563 477.348L655.59 499.818H629.644Z" stroke="#A28800"/>
<path d="M682.69 499.818L669.717 477.348L682.69 454.878H708.636L721.609 477.348L708.636 499.818H682.69Z" stroke="#A28800"/>
<path d="M735.737 499.818L722.764 477.348L735.737 454.878H761.683L774.656 477.348L761.683 499.818H735.737Z" stroke="#A28800"/>
<path d="M788.783 499.818L775.81 477.348L788.783 454.878H814.729L827.702 477.348L814.729 499.818H788.783Z" stroke="#A28800"/>
<path d="M841.83 499.818L828.857 477.348L841.83 454.878H867.775L880.748 477.348L867.775 499.818H841.83Z" stroke="#A28800"/>
<path d="M894.876 499.818L881.903 477.348L894.876 454.878H920.822L933.795 477.348L920.822 499.818H894.876Z" stroke="#A28800"/>
<path d="M947.922 499.818L934.949 477.348L947.922 454.878H973.868L986.841 477.348L973.868 499.818H947.922Z" stroke="#A28800"/>
<path d="M1000.97 499.818L987.996 477.348L1000.97 454.878H1026.91L1039.89 477.348L1026.91 499.818H1000.97Z" stroke="#A28800"/>
<path d="M1054.02 499.818L1041.04 477.348L1054.02 454.878H1079.96L1092.93 477.348L1079.96 499.818H1054.02Z" stroke="#A28800"/>
<path d="M46.1338 552.864L33.1608 530.395L46.1338 507.925H72.0796L85.0525 530.395L72.0796 552.864H46.1338Z" stroke="#A28800"/>
<path d="M99.1802 552.864L86.2072 530.395L99.1802 507.925H125.126L138.099 530.395L125.126 552.864H99.1802Z" stroke="#A28800"/>
<path d="M152.227 552.864L139.254 530.395L152.227 507.925H178.172L191.145 530.395L178.172 552.864H152.227Z" stroke="#A28800"/>
<path d="M205.273 552.864L192.3 530.395L205.273 507.925H231.219L244.192 530.395L231.219 552.864H205.273Z" stroke="#A28800"/>
<path d="M258.319 552.864L245.346 530.395L258.319 507.925H284.265L297.238 530.395L284.265 552.864H258.319Z" stroke="#A28800"/>
<path d="M311.366 552.864L298.393 530.395L311.366 507.925H337.312L350.284 530.395L337.312 552.864H311.366Z" stroke="#A28800"/>
<path d="M364.412 552.864L351.439 530.395L364.412 507.925H390.358L403.331 530.395L390.358 552.864H364.412Z" stroke="#A28800"/>
<path d="M417.458 552.864L404.486 530.395L417.458 507.925H443.404L456.377 530.395L443.404 552.864H417.458Z" stroke="#A28800"/>
<path d="M470.505 552.864L457.532 530.395L470.505 507.925H496.451L509.424 530.395L496.451 552.864H470.505Z" stroke="#A28800"/>
<path d="M523.551 552.864L510.578 530.395L523.551 507.925H549.497L562.47 530.395L549.497 552.864H523.551Z" stroke="#A28800"/>
<path d="M576.598 552.864L563.625 530.395L576.598 507.925H602.543L615.516 530.395L602.543 552.864H576.598Z" stroke="#A28800"/>
<path d="M629.644 552.864L616.671 530.395L629.644 507.925H655.59L668.563 530.395L655.59 552.864H629.644Z" stroke="#A28800"/>
<path d="M682.69 552.864L669.717 530.395L682.69 507.925H708.636L721.609 530.395L708.636 552.864H682.69Z" stroke="#A28800"/>
<path d="M735.737 552.864L722.764 530.395L735.737 507.925H761.683L774.656 530.395L761.683 552.864H735.737Z" stroke="#A28800"/>
<path d="M788.783 552.864L775.81 530.395L788.783 507.925H814.729L827.702 530.395L814.729 552.864H788.783Z" stroke="#A28800"/>
<path d="M841.83 552.864L828.857 530.395L841.83 507.925H867.775L880.748 530.395L867.775 552.864H841.83Z" stroke="#A28800"/>
<path d="M894.876 552.864L881.903 530.395L894.876 507.925H920.822L933.795 530.395L920.822 552.864H894.876Z" stroke="#A28800"/>
<path d="M947.922 552.864L934.949 530.395L947.922 507.925H973.868L986.841 530.395L973.868 552.864H947.922Z" stroke="#A28800"/>
<path d="M1000.97 552.864L987.996 530.395L1000.97 507.925H1026.91L1039.89 530.395L1026.91 552.864H1000.97Z" stroke="#A28800"/>
<path d="M1054.02 552.864L1041.04 530.395L1054.02 507.925H1079.96L1092.93 530.395L1079.96 552.864H1054.02Z" stroke="#A28800"/>
<path d="M46.1338 605.911L33.1608 583.441L46.1338 560.971H72.0796L85.0525 583.441L72.0796 605.911H46.1338Z" stroke="#A28800"/>
<path d="M99.1802 605.911L86.2072 583.441L99.1802 560.971H125.126L138.099 583.441L125.126 605.911H99.1802Z" stroke="#A28800"/>
<path d="M152.227 605.911L139.254 583.441L152.227 560.971H178.172L191.145 583.441L178.172 605.911H152.227Z" stroke="#A28800"/>
<path d="M205.273 605.911L192.3 583.441L205.273 560.971H231.219L244.192 583.441L231.219 605.911H205.273Z" stroke="#A28800"/>
<path d="M258.319 605.911L245.346 583.441L258.319 560.971H284.265L297.238 583.441L284.265 605.911H258.319Z" stroke="#A28800"/>
<path d="M311.366 605.911L298.393 583.441L311.366 560.971H337.312L350.284 583.441L337.312 605.911H311.366Z" stroke="#A28800"/>
<path d="M364.412 605.911L351.439 583.441L364.412 560.971H390.358L403.331 583.441L390.358 605.911H364.412Z" stroke="#A28800"/>
<path d="M417.458 605.911L404.486 583.441L417.458 560.971H443.404L456.377 583.441L443.404 605.911H417.458Z" stroke="#A28800"/>
<path d="M470.505 605.911L457.532 583.441L470.505 560.971H496.451L509.424 583.441L496.451 605.911H470.505Z" stroke="#A28800"/>
<path d="M523.551 605.911L510.578 583.441L523.551 560.971H549.497L562.47 583.441L549.497 605.911H523.551Z" stroke="#A28800"/>
<path d="M576.598 605.911L563.625 583.441L576.598 560.971H602.543L615.516 583.441L602.543 605.911H576.598Z" stroke="#A28800"/>
<path d="M629.644 605.911L616.671 583.441L629.644 560.971H655.59L668.563 583.441L655.59 605.911H629.644Z" stroke="#A28800"/>
<path d="M682.69 605.911L669.717 583.441L682.69 560.971H708.636L721.609 583.441L708.636 605.911H682.69Z" stroke="#A28800"/>
<path d="M735.737 605.911L722.764 583.441L735.737 560.971H761.683L774.656 583.441L761.683 605.911H735.737Z" stroke="#A28800"/>
<path d="M788.783 605.911L775.81 583.441L788.783 560.971H814.729L827.702 583.441L814.729 605.911H788.783Z" stroke="#A28800"/>
<path d="M841.83 605.911L828.857 583.441L841.83 560.971H867.775L880.748 583.441L867.775 605.911H841.83Z" stroke="#A28800"/>
<path d="M894.876 605.911L881.903 583.441L894.876 560.971H920.822L933.795 583.441L920.822 605.911H894.876Z" stroke="#A28800"/>
<path d="M947.922 605.911L934.949 583.441L947.922 560.971H973.868L986.841 583.441L973.868 605.911H947.922Z" stroke="#A28800"/>
<path d="M1000.97 605.911L987.996 583.441L1000.97 560.971H1026.91L1039.89 583.441L1026.91 605.911H1000.97Z" stroke="#A28800"/>
<path d="M1054.02 605.911L1041.04 583.441L1054.02 560.971H1079.96L1092.93 583.441L1079.96 605.911H1054.02Z" stroke="#A28800"/>
<path d="M46.1338 658.957L33.1608 636.487L46.1338 614.018H72.0796L85.0525 636.487L72.0796 658.957H46.1338Z" stroke="#A28800"/>
<path d="M99.1802 658.957L86.2072 636.487L99.1802 614.018H125.126L138.099 636.487L125.126 658.957H99.1802Z" stroke="#A28800"/>
<path d="M152.227 658.957L139.254 636.487L152.227 614.018H178.172L191.145 636.487L178.172 658.957H152.227Z" stroke="#A28800"/>
<path d="M205.273 658.957L192.3 636.487L205.273 614.018H231.219L244.192 636.487L231.219 658.957H205.273Z" stroke="#A28800"/>
<path d="M258.319 658.957L245.346 636.487L258.319 614.018H284.265L297.238 636.487L284.265 658.957H258.319Z" stroke="#A28800"/>
<path d="M311.366 658.957L298.393 636.487L311.366 614.018H337.312L350.284 636.487L337.312 658.957H311.366Z" stroke="#A28800"/>
<path d="M364.412 658.957L351.439 636.487L364.412 614.018H390.358L403.331 636.487L390.358 658.957H364.412Z" stroke="#A28800"/>
<path d="M417.458 658.957L404.486 636.487L417.458 614.018H443.404L456.377 636.487L443.404 658.957H417.458Z" stroke="#A28800"/>
<path d="M470.505 658.957L457.532 636.487L470.505 614.018H496.451L509.424 636.487L496.451 658.957H470.505Z" stroke="#A28800"/>
<path d="M523.551 658.957L510.578 636.487L523.551 614.018H549.497L562.47 636.487L549.497 658.957H523.551Z" stroke="#A28800"/>
<path d="M576.598 658.957L563.625 636.487L576.598 614.018H602.543L615.516 636.487L602.543 658.957H576.598Z" stroke="#A28800"/>
<path d="M629.644 658.957L616.671 636.487L629.644 614.018H655.59L668.563 636.487L655.59 658.957H629.644Z" stroke="#A28800"/>
<path d="M682.69 658.957L669.717 636.487L682.69 614.018H708.636L721.609 636.487L708.636 658.957H682.69Z" stroke="#A28800"/>
<path d="M735.737 658.957L722.764 636.487L735.737 614.018H761.683L774.656 636.487L761.683 658.957H735.737Z" stroke="#A28800"/>
<path d="M788.783 658.957L775.81 636.487L788.783 614.018H814.729L827.702 636.487L814.729 658.957H788.783Z" stroke="#A28800"/>
<path d="M841.83 658.957L828.857 636.487L841.83 614.018H867.775L880.748 636.487L867.775 658.957H841.83Z" stroke="#A28800"/>
<path d="M894.876 658.957L881.903 636.487L894.876 614.018H920.822L933.795 636.487L920.822 658.957H894.876Z" stroke="#A28800"/>
<path d="M947.922 658.957L934.949 636.487L947.922 614.018H973.868L986.841 636.487L973.868 658.957H947.922Z" stroke="#A28800"/>
<path d="M1000.97 658.957L987.996 636.487L1000.97 614.018H1026.91L1039.89 636.487L1026.91 658.957H1000.97Z" stroke="#A28800"/>
<path d="M1054.02 658.957L1041.04 636.487L1054.02 614.018H1079.96L1092.93 636.487L1079.96 658.957H1054.02Z" stroke="#A28800"/>
</g>
</g>
<defs>
<filter id="filter0_d_9_305" x="0.547363" y="0.453857" width="1071" height="698" filterUnits="userSpaceOnUse" color-interpolation-filters="sRGB">
<feFlood flood-opacity="0" result="BackgroundImageFix"/>
<feColorMatrix in="SourceAlpha" type="matrix" values="0 0 0 0 0 0 0 0 0 0 0 0 0 0 0 0 0 0 127 0" result="hardAlpha"/>
<feOffset dy="4"/>
<feGaussianBlur stdDeviation="15"/>
<feComposite in2="hardAlpha" operator="out"/>
<feColorMatrix type="matrix" values="0 0 0 0 0 0 0 0 0 0 0 0 0 0 0 0 0 0 0.46 0"/>
<feBlend mode="normal" in2="BackgroundImageFix" result="effect1_dropShadow_9_305"/>
<feBlend mode="normal" in="SourceGraphic" in2="effect1_dropShadow_9_305" result="shape"/>
</filter>
<clipPath id="clip0_9_305">
<rect x="30.5474" y="26.4539" width="1011" height="638" rx="37.5" fill="white"/>
</clipPath>
</defs>
</svg>
