<svg width="1072" height="699" viewBox="0 0 1072 699" fill="none" xmlns="http://www.w3.org/2000/svg">
<g filter="url(#filter0_d_11_234)">
<rect x="30.8176" y="26.0925" width="1011" height="638" rx="37.5" fill="#004F24"/>
<mask id="path-2-inside-1_11_234" fill="white">
<path d="M219.82 332.856L307.021 245.655L296.328 234.962C289.57 228.204 278.613 228.204 271.855 234.962L173.961 332.856C167.202 339.614 167.202 350.571 173.961 357.329L271.855 455.223C278.613 461.982 289.57 461.982 296.328 455.223L307.021 444.531L219.82 357.329C213.062 350.571 213.062 339.614 219.82 332.856Z"/>
<path d="M265.679 332.856L329.951 268.584L307.021 245.655L219.82 332.856C213.062 339.614 213.062 350.571 219.82 357.329L307.021 444.531L329.951 421.601L265.679 357.329C258.921 350.571 258.921 339.614 265.679 332.856Z"/>
<path d="M352.88 245.655L342.188 234.962C335.429 228.204 324.472 228.204 317.714 234.962L307.021 245.655L329.951 268.584L352.88 245.655Z"/>
<path d="M311.538 332.856L352.88 291.514L329.951 268.584L265.679 332.856C258.921 339.614 258.921 350.571 265.679 357.329L329.951 421.601L352.88 398.671L311.538 357.329C304.78 350.571 304.78 339.614 311.538 332.856Z"/>
<path d="M357.398 332.856L375.81 314.444L352.88 291.514L311.538 332.856C304.78 339.614 304.78 350.571 311.538 357.329L352.88 398.671L375.81 375.742L357.398 357.329C350.64 350.571 350.64 339.614 357.398 332.856Z"/>
<path d="M352.88 444.531L375.81 421.601L352.88 398.671L329.951 421.601L352.88 444.531Z"/>
<path d="M317.714 455.223C324.472 461.982 335.429 461.982 342.188 455.223L352.88 444.531L329.951 421.601L307.021 444.531L317.714 455.223Z"/>
<path d="M375.81 375.742L352.88 398.671L375.81 421.601L398.74 398.671L375.81 375.742Z"/>
<path d="M398.74 444.531L421.669 421.601L398.74 398.671L375.81 421.601L398.74 444.531Z"/>
<path d="M363.573 455.223C370.331 461.982 381.289 461.982 388.047 455.223L398.74 444.531L375.81 421.601L352.88 444.531L363.573 455.223Z"/>
<path d="M433.906 455.223L444.599 444.531L421.669 421.601L398.74 444.531L409.433 455.223C416.191 461.982 427.148 461.982 433.906 455.223Z"/>
<path d="M398.74 291.514L375.81 268.584L352.88 291.514L375.81 314.444L398.74 291.514Z"/>
<path d="M421.669 268.584L398.74 245.655L375.81 268.584L398.74 291.514L421.669 268.584Z"/>
<path d="M444.599 245.655L433.906 234.962C427.148 228.204 416.191 228.204 409.433 234.962L398.74 245.655L421.669 268.584L444.599 245.655Z"/>
<path d="M352.88 245.655L329.951 268.584L352.88 291.514L375.81 268.584L352.88 245.655Z"/>
<path d="M388.047 234.962C381.289 228.204 370.331 228.204 363.573 234.962L352.88 245.655L375.81 268.584L398.74 245.655L388.047 234.962Z"/>
<path d="M403.257 332.856L421.669 314.444L398.74 291.514L375.81 314.444L394.222 332.856C396.487 335.121 397.993 337.857 398.74 340.749C399.487 337.857 400.992 335.121 403.257 332.856Z"/>
<path d="M421.669 268.584L398.74 291.514L421.669 314.444L444.599 291.514L421.669 268.584Z"/>
<path d="M444.599 245.655L421.669 268.584L444.599 291.514L467.529 268.584L444.599 245.655Z"/>
<path d="M490.458 245.655L479.765 234.962C473.007 228.204 462.05 228.204 455.292 234.962L444.599 245.655L467.529 268.584L490.458 245.655Z"/>
<path d="M421.669 375.742L403.257 357.329C400.992 355.065 399.487 352.328 398.74 349.437C397.993 352.328 396.487 355.065 394.222 357.329L375.81 375.742L398.74 398.671L421.669 375.742Z"/>
<path d="M398.74 398.671L421.669 421.601L444.599 398.671L421.669 375.742L398.74 398.671Z"/>
<path d="M421.669 421.601L444.599 444.531L467.529 421.601L444.599 398.671L421.669 421.601Z"/>
<path d="M479.765 455.223L490.458 444.531L467.529 421.601L444.599 444.531L455.292 455.223C462.05 461.982 473.007 461.982 479.765 455.223Z"/>
<path d="M536.318 444.531L513.388 421.601L490.458 444.531L501.151 455.223C507.909 461.982 518.867 461.982 525.625 455.223L536.318 444.531Z"/>
<path d="M490.458 398.671L467.529 421.601L490.458 444.531L513.388 421.601L490.458 398.671Z"/>
<path d="M467.529 375.742L444.599 398.671L467.529 421.601L490.458 398.671L467.529 375.742Z"/>
<path d="M449.116 357.329C446.852 355.065 445.346 352.328 444.599 349.437C443.852 352.328 442.346 355.065 440.082 357.329L421.669 375.742L444.599 398.671L467.529 375.742L449.116 357.329Z"/>
<path d="M449.116 332.856L467.529 314.444L444.599 291.514L421.669 314.444L440.082 332.856C442.346 335.121 443.852 337.857 444.599 340.749C445.346 337.857 446.852 335.121 449.116 332.856Z"/>
<path d="M467.529 268.584L444.599 291.514L467.529 314.444L490.458 291.514L467.529 268.584Z"/>
<path d="M490.458 245.655L467.529 268.584L490.458 291.514L513.388 268.584L490.458 245.655Z"/>
<path d="M536.318 245.655L525.625 234.962C518.867 228.204 507.909 228.204 501.151 234.962L490.458 245.655L513.388 268.584L536.318 245.655Z"/>
<path d="M536.318 291.514L559.247 268.584L536.318 245.655L513.388 268.584L536.318 291.514Z"/>
<path d="M490.458 291.514L513.388 314.444L536.318 291.514L513.388 268.584L490.458 291.514Z"/>
<path d="M490.458 340.748C491.205 337.857 492.711 335.121 494.976 332.856L513.388 314.444L490.458 291.514L467.529 314.444L485.941 332.856C488.206 335.121 489.711 337.857 490.458 340.748Z"/>
<path d="M513.388 375.742L494.976 357.329C492.711 355.065 491.205 352.328 490.458 349.437C489.711 352.328 488.206 355.065 485.941 357.329L467.529 375.742L490.458 398.671L513.388 375.742Z"/>
<path d="M513.388 421.601L536.318 398.671L513.388 375.742L490.458 398.671L513.388 421.601Z"/>
<path d="M513.388 421.601L536.318 444.531L559.247 421.601L536.318 398.671L513.388 421.601Z"/>
<path d="M571.484 455.223L582.177 444.531L559.247 421.601L536.318 444.531L547.011 455.223C553.769 461.982 564.726 461.982 571.484 455.223Z"/>
<path d="M628.036 444.531L605.107 421.601L582.177 444.531L592.87 455.223C599.628 461.982 610.585 461.982 617.343 455.223L628.036 444.531Z"/>
<path d="M582.177 398.671L559.247 421.601L582.177 444.531L605.107 421.601L582.177 398.671Z"/>
<path d="M559.247 375.742L536.318 398.671L559.247 421.601L582.177 398.671L559.247 375.742Z"/>
<path d="M540.835 357.329C538.57 355.065 537.065 352.328 536.318 349.437C535.571 352.328 534.065 355.065 531.8 357.329L513.388 375.742L536.318 398.671L559.247 375.742L540.835 357.329Z"/>
<path d="M540.835 332.856L559.247 314.444L536.318 291.514L513.388 314.444L531.8 332.856C534.065 335.121 535.571 337.857 536.318 340.748C537.065 337.857 538.57 335.121 540.835 332.856Z"/>
<path d="M559.247 268.584L536.318 291.514L559.247 314.444L582.177 291.514L559.247 268.584Z"/>
<path d="M605.107 268.584L582.177 245.655L559.247 268.584L582.177 291.514L605.107 268.584Z"/>
<path d="M628.036 245.655L617.343 234.962C610.585 228.204 599.628 228.204 592.87 234.962L582.177 245.655L605.107 268.584L628.036 245.655Z"/>
<path d="M571.484 234.962C564.726 228.204 553.769 228.204 547.011 234.962L536.318 245.655L559.247 268.584L582.177 245.655L571.484 234.962Z"/>
<path d="M719.755 291.514L696.825 314.444L715.237 332.856C721.996 339.614 721.996 350.571 715.237 357.329L696.825 375.742L719.755 398.671L761.097 357.329C767.855 350.571 767.855 339.614 761.097 332.856L719.755 291.514Z"/>
<path d="M806.956 332.856L742.684 268.584L719.755 291.514L761.097 332.856C767.855 339.614 767.855 350.571 761.097 357.329L719.755 398.671L742.684 421.601L806.956 357.329C813.714 350.571 813.714 339.614 806.956 332.856Z"/>
<path d="M852.815 332.856L765.614 245.655L742.684 268.584L806.956 332.856C813.714 339.614 813.714 350.571 806.956 357.329L742.684 421.601L765.614 444.531L852.815 357.329C859.574 350.571 859.574 339.614 852.815 332.856Z"/>
<path d="M898.675 332.856L800.781 234.962C794.022 228.204 783.065 228.204 776.307 234.962L765.614 245.655L852.815 332.856C859.574 339.614 859.574 350.571 852.815 357.329L765.614 444.531L776.307 455.223C783.065 461.982 794.022 461.982 800.781 455.223L898.675 357.329C905.433 350.571 905.433 339.614 898.675 332.856Z"/>
<path d="M719.755 444.531L730.448 455.223C737.206 461.982 748.163 461.982 754.921 455.223L765.614 444.531L742.684 421.601L719.755 444.531Z"/>
<path d="M719.755 398.671L696.825 421.601L719.755 444.531L742.684 421.601L719.755 398.671Z"/>
<path d="M673.896 444.531L684.588 455.223C691.347 461.982 702.304 461.982 709.062 455.223L719.755 444.531L696.825 421.601L673.896 444.531Z"/>
<path d="M673.896 398.671L650.966 421.601L673.896 444.531L696.825 421.601L673.896 398.671Z"/>
<path d="M719.755 398.671L696.825 375.742L673.896 398.671L696.825 421.601L719.755 398.671Z"/>
<path d="M678.413 357.329C676.148 355.065 674.642 352.328 673.896 349.437C673.149 352.328 671.643 355.065 669.378 357.329L650.966 375.742L673.896 398.671L696.825 375.742L678.413 357.329Z"/>
<path d="M673.896 291.514L650.966 314.444L669.378 332.856C671.643 335.121 673.149 337.857 673.896 340.748C674.642 337.857 676.148 335.121 678.413 332.856L696.825 314.444L673.896 291.514Z"/>
<path d="M650.966 268.584L628.036 291.514L650.966 314.444L673.896 291.514L650.966 268.584Z"/>
<path d="M628.036 245.655L605.107 268.584L628.036 291.514L650.966 268.584L628.036 245.655Z"/>
<path d="M663.203 234.962C656.444 228.204 645.487 228.204 638.729 234.962L628.036 245.655L650.966 268.584L673.896 245.655L663.203 234.962Z"/>
<path d="M673.896 291.514L696.825 268.584L673.896 245.655L650.966 268.584L673.896 291.514Z"/>
<path d="M696.825 314.444L719.755 291.514L696.825 268.584L673.896 291.514L696.825 314.444Z"/>
<path d="M719.755 291.514L742.684 268.584L719.755 245.655L696.825 268.584L719.755 291.514Z"/>
<path d="M709.062 234.962C702.304 228.204 691.347 228.204 684.588 234.962L673.896 245.655L696.825 268.584L719.755 245.655L709.062 234.962Z"/>
<path d="M754.921 234.962C748.163 228.204 737.206 228.204 730.448 234.962L719.755 245.655L742.684 268.584L765.614 245.655L754.921 234.962Z"/>
<path d="M628.036 340.749C628.783 337.857 630.289 335.121 632.554 332.856L650.966 314.444L628.036 291.514L605.107 314.444L623.519 332.856C625.784 335.121 627.289 337.857 628.036 340.749Z"/>
<path d="M605.107 268.584L582.177 291.514L605.107 314.444L628.036 291.514L605.107 268.584Z"/>
<path d="M582.177 340.749C582.924 337.857 584.43 335.121 586.694 332.856L605.107 314.444L582.177 291.514L559.247 314.444L577.66 332.856C579.924 335.121 581.43 337.857 582.177 340.749Z"/>
<path d="M623.519 357.329L605.107 375.742L628.036 398.671L650.966 375.742L632.554 357.329C630.289 355.065 628.783 352.328 628.036 349.437C627.289 352.328 625.784 355.065 623.519 357.329Z"/>
<path d="M582.177 398.671L605.107 421.601L628.036 398.671L605.107 375.742L582.177 398.671Z"/>
<path d="M559.247 375.742L582.177 398.671L605.107 375.742L586.694 357.329C584.43 355.065 582.924 352.328 582.177 349.437C581.43 352.328 579.924 355.065 577.66 357.329L559.247 375.742Z"/>
<path d="M605.107 421.601L628.036 444.531L650.966 421.601L628.036 398.671L605.107 421.601Z"/>
<path d="M638.729 455.223C645.487 461.982 656.444 461.982 663.203 455.223L673.896 444.531L650.966 421.601L628.036 444.531L638.729 455.223Z"/>
<path d="M650.966 421.601L673.896 398.671L650.966 375.742L628.036 398.671L650.966 421.601Z"/>
</mask>
<path d="M219.82 332.856L307.021 245.655L296.328 234.962C289.57 228.204 278.613 228.204 271.855 234.962L173.961 332.856C167.202 339.614 167.202 350.571 173.961 357.329L271.855 455.223C278.613 461.982 289.57 461.982 296.328 455.223L307.021 444.531L219.82 357.329C213.062 350.571 213.062 339.614 219.82 332.856Z" fill="#00662E"/>
<path d="M265.679 332.856L329.951 268.584L307.021 245.655L219.82 332.856C213.062 339.614 213.062 350.571 219.82 357.329L307.021 444.531L329.951 421.601L265.679 357.329C258.921 350.571 258.921 339.614 265.679 332.856Z" fill="#00662E"/>
<path d="M352.88 245.655L342.188 234.962C335.429 228.204 324.472 228.204 317.714 234.962L307.021 245.655L329.951 268.584L352.88 245.655Z" fill="#00662E"/>
<path d="M311.538 332.856L352.88 291.514L329.951 268.584L265.679 332.856C258.921 339.614 258.921 350.571 265.679 357.329L329.951 421.601L352.88 398.671L311.538 357.329C304.78 350.571 304.78 339.614 311.538 332.856Z" fill="#00662E"/>
<path d="M357.398 332.856L375.81 314.444L352.88 291.514L311.538 332.856C304.78 339.614 304.78 350.571 311.538 357.329L352.88 398.671L375.81 375.742L357.398 357.329C350.64 350.571 350.64 339.614 357.398 332.856Z" fill="#00662E"/>
<path d="M352.88 444.531L375.81 421.601L352.88 398.671L329.951 421.601L352.88 444.531Z" fill="#00662E"/>
<path d="M317.714 455.223C324.472 461.982 335.429 461.982 342.188 455.223L352.88 444.531L329.951 421.601L307.021 444.531L317.714 455.223Z" fill="#00662E"/>
<path d="M375.81 375.742L352.88 398.671L375.81 421.601L398.74 398.671L375.81 375.742Z" fill="#00662E"/>
<path d="M398.74 444.531L421.669 421.601L398.74 398.671L375.81 421.601L398.74 444.531Z" fill="#00662E"/>
<path d="M363.573 455.223C370.331 461.982 381.289 461.982 388.047 455.223L398.74 444.531L375.81 421.601L352.88 444.531L363.573 455.223Z" fill="#00662E"/>
<path d="M433.906 455.223L444.599 444.531L421.669 421.601L398.74 444.531L409.433 455.223C416.191 461.982 427.148 461.982 433.906 455.223Z" fill="#00662E"/>
<path d="M398.74 291.514L375.81 268.584L352.88 291.514L375.81 314.444L398.74 291.514Z" fill="#00662E"/>
<path d="M421.669 268.584L398.74 245.655L375.81 268.584L398.74 291.514L421.669 268.584Z" fill="#00662E"/>
<path d="M444.599 245.655L433.906 234.962C427.148 228.204 416.191 228.204 409.433 234.962L398.74 245.655L421.669 268.584L444.599 245.655Z" fill="#00662E"/>
<path d="M352.88 245.655L329.951 268.584L352.88 291.514L375.81 268.584L352.88 245.655Z" fill="#00662E"/>
<path d="M388.047 234.962C381.289 228.204 370.331 228.204 363.573 234.962L352.88 245.655L375.81 268.584L398.74 245.655L388.047 234.962Z" fill="#00662E"/>
<path d="M403.257 332.856L421.669 314.444L398.74 291.514L375.81 314.444L394.222 332.856C396.487 335.121 397.993 337.857 398.74 340.749C399.487 337.857 400.992 335.121 403.257 332.856Z" fill="#00662E"/>
<path d="M421.669 268.584L398.74 291.514L421.669 314.444L444.599 291.514L421.669 268.584Z" fill="#00662E"/>
<path d="M444.599 245.655L421.669 268.584L444.599 291.514L467.529 268.584L444.599 245.655Z" fill="#00662E"/>
<path d="M490.458 245.655L479.765 234.962C473.007 228.204 462.05 228.204 455.292 234.962L444.599 245.655L467.529 268.584L490.458 245.655Z" fill="#00662E"/>
<path d="M421.669 375.742L403.257 357.329C400.992 355.065 399.487 352.328 398.74 349.437C397.993 352.328 396.487 355.065 394.222 357.329L375.81 375.742L398.74 398.671L421.669 375.742Z" fill="#00662E"/>
<path d="M398.74 398.671L421.669 421.601L444.599 398.671L421.669 375.742L398.74 398.671Z" fill="#00662E"/>
<path d="M421.669 421.601L444.599 444.531L467.529 421.601L444.599 398.671L421.669 421.601Z" fill="#00662E"/>
<path d="M479.765 455.223L490.458 444.531L467.529 421.601L444.599 444.531L455.292 455.223C462.05 461.982 473.007 461.982 479.765 455.223Z" fill="#00662E"/>
<path d="M536.318 444.531L513.388 421.601L490.458 444.531L501.151 455.223C507.909 461.982 518.867 461.982 525.625 455.223L536.318 444.531Z" fill="#00662E"/>
<path d="M490.458 398.671L467.529 421.601L490.458 444.531L513.388 421.601L490.458 398.671Z" fill="#00662E"/>
<path d="M467.529 375.742L444.599 398.671L467.529 421.601L490.458 398.671L467.529 375.742Z" fill="#00662E"/>
<path d="M449.116 357.329C446.852 355.065 445.346 352.328 444.599 349.437C443.852 352.328 442.346 355.065 440.082 357.329L421.669 375.742L444.599 398.671L467.529 375.742L449.116 357.329Z" fill="#00662E"/>
<path d="M449.116 332.856L467.529 314.444L444.599 291.514L421.669 314.444L440.082 332.856C442.346 335.121 443.852 337.857 444.599 340.749C445.346 337.857 446.852 335.121 449.116 332.856Z" fill="#00662E"/>
<path d="M467.529 268.584L444.599 291.514L467.529 314.444L490.458 291.514L467.529 268.584Z" fill="#00662E"/>
<path d="M490.458 245.655L467.529 268.584L490.458 291.514L513.388 268.584L490.458 245.655Z" fill="#00662E"/>
<path d="M536.318 245.655L525.625 234.962C518.867 228.204 507.909 228.204 501.151 234.962L490.458 245.655L513.388 268.584L536.318 245.655Z" fill="#00662E"/>
<path d="M536.318 291.514L559.247 268.584L536.318 245.655L513.388 268.584L536.318 291.514Z" fill="#00662E"/>
<path d="M490.458 291.514L513.388 314.444L536.318 291.514L513.388 268.584L490.458 291.514Z" fill="#00662E"/>
<path d="M490.458 340.748C491.205 337.857 492.711 335.121 494.976 332.856L513.388 314.444L490.458 291.514L467.529 314.444L485.941 332.856C488.206 335.121 489.711 337.857 490.458 340.748Z" fill="#00662E"/>
<path d="M513.388 375.742L494.976 357.329C492.711 355.065 491.205 352.328 490.458 349.437C489.711 352.328 488.206 355.065 485.941 357.329L467.529 375.742L490.458 398.671L513.388 375.742Z" fill="#00662E"/>
<path d="M513.388 421.601L536.318 398.671L513.388 375.742L490.458 398.671L513.388 421.601Z" fill="#00662E"/>
<path d="M513.388 421.601L536.318 444.531L559.247 421.601L536.318 398.671L513.388 421.601Z" fill="#00662E"/>
<path d="M571.484 455.223L582.177 444.531L559.247 421.601L536.318 444.531L547.011 455.223C553.769 461.982 564.726 461.982 571.484 455.223Z" fill="#00662E"/>
<path d="M628.036 444.531L605.107 421.601L582.177 444.531L592.87 455.223C599.628 461.982 610.585 461.982 617.343 455.223L628.036 444.531Z" fill="#00662E"/>
<path d="M582.177 398.671L559.247 421.601L582.177 444.531L605.107 421.601L582.177 398.671Z" fill="#00662E"/>
<path d="M559.247 375.742L536.318 398.671L559.247 421.601L582.177 398.671L559.247 375.742Z" fill="#00662E"/>
<path d="M540.835 357.329C538.57 355.065 537.065 352.328 536.318 349.437C535.571 352.328 534.065 355.065 531.8 357.329L513.388 375.742L536.318 398.671L559.247 375.742L540.835 357.329Z" fill="#00662E"/>
<path d="M540.835 332.856L559.247 314.444L536.318 291.514L513.388 314.444L531.8 332.856C534.065 335.121 535.571 337.857 536.318 340.748C537.065 337.857 538.57 335.121 540.835 332.856Z" fill="#00662E"/>
<path d="M559.247 268.584L536.318 291.514L559.247 314.444L582.177 291.514L559.247 268.584Z" fill="#00662E"/>
<path d="M605.107 268.584L582.177 245.655L559.247 268.584L582.177 291.514L605.107 268.584Z" fill="#00662E"/>
<path d="M628.036 245.655L617.343 234.962C610.585 228.204 599.628 228.204 592.87 234.962L582.177 245.655L605.107 268.584L628.036 245.655Z" fill="#00662E"/>
<path d="M571.484 234.962C564.726 228.204 553.769 228.204 547.011 234.962L536.318 245.655L559.247 268.584L582.177 245.655L571.484 234.962Z" fill="#00662E"/>
<path d="M719.755 291.514L696.825 314.444L715.237 332.856C721.996 339.614 721.996 350.571 715.237 357.329L696.825 375.742L719.755 398.671L761.097 357.329C767.855 350.571 767.855 339.614 761.097 332.856L719.755 291.514Z" fill="#00662E"/>
<path d="M806.956 332.856L742.684 268.584L719.755 291.514L761.097 332.856C767.855 339.614 767.855 350.571 761.097 357.329L719.755 398.671L742.684 421.601L806.956 357.329C813.714 350.571 813.714 339.614 806.956 332.856Z" fill="#00662E"/>
<path d="M852.815 332.856L765.614 245.655L742.684 268.584L806.956 332.856C813.714 339.614 813.714 350.571 806.956 357.329L742.684 421.601L765.614 444.531L852.815 357.329C859.574 350.571 859.574 339.614 852.815 332.856Z" fill="#00662E"/>
<path d="M898.675 332.856L800.781 234.962C794.022 228.204 783.065 228.204 776.307 234.962L765.614 245.655L852.815 332.856C859.574 339.614 859.574 350.571 852.815 357.329L765.614 444.531L776.307 455.223C783.065 461.982 794.022 461.982 800.781 455.223L898.675 357.329C905.433 350.571 905.433 339.614 898.675 332.856Z" fill="#00662E"/>
<path d="M719.755 444.531L730.448 455.223C737.206 461.982 748.163 461.982 754.921 455.223L765.614 444.531L742.684 421.601L719.755 444.531Z" fill="#00662E"/>
<path d="M719.755 398.671L696.825 421.601L719.755 444.531L742.684 421.601L719.755 398.671Z" fill="#00662E"/>
<path d="M673.896 444.531L684.588 455.223C691.347 461.982 702.304 461.982 709.062 455.223L719.755 444.531L696.825 421.601L673.896 444.531Z" fill="#00662E"/>
<path d="M673.896 398.671L650.966 421.601L673.896 444.531L696.825 421.601L673.896 398.671Z" fill="#00662E"/>
<path d="M719.755 398.671L696.825 375.742L673.896 398.671L696.825 421.601L719.755 398.671Z" fill="#00662E"/>
<path d="M678.413 357.329C676.148 355.065 674.642 352.328 673.896 349.437C673.149 352.328 671.643 355.065 669.378 357.329L650.966 375.742L673.896 398.671L696.825 375.742L678.413 357.329Z" fill="#00662E"/>
<path d="M673.896 291.514L650.966 314.444L669.378 332.856C671.643 335.121 673.149 337.857 673.896 340.748C674.642 337.857 676.148 335.121 678.413 332.856L696.825 314.444L673.896 291.514Z" fill="#00662E"/>
<path d="M650.966 268.584L628.036 291.514L650.966 314.444L673.896 291.514L650.966 268.584Z" fill="#00662E"/>
<path d="M628.036 245.655L605.107 268.584L628.036 291.514L650.966 268.584L628.036 245.655Z" fill="#00662E"/>
<path d="M663.203 234.962C656.444 228.204 645.487 228.204 638.729 234.962L628.036 245.655L650.966 268.584L673.896 245.655L663.203 234.962Z" fill="#00662E"/>
<path d="M673.896 291.514L696.825 268.584L673.896 245.655L650.966 268.584L673.896 291.514Z" fill="#00662E"/>
<path d="M696.825 314.444L719.755 291.514L696.825 268.584L673.896 291.514L696.825 314.444Z" fill="#00662E"/>
<path d="M719.755 291.514L742.684 268.584L719.755 245.655L696.825 268.584L719.755 291.514Z" fill="#00662E"/>
<path d="M709.062 234.962C702.304 228.204 691.347 228.204 684.588 234.962L673.896 245.655L696.825 268.584L719.755 245.655L709.062 234.962Z" fill="#00662E"/>
<path d="M754.921 234.962C748.163 228.204 737.206 228.204 730.448 234.962L719.755 245.655L742.684 268.584L765.614 245.655L754.921 234.962Z" fill="#00662E"/>
<path d="M628.036 340.749C628.783 337.857 630.289 335.121 632.554 332.856L650.966 314.444L628.036 291.514L605.107 314.444L623.519 332.856C625.784 335.121 627.289 337.857 628.036 340.749Z" fill="#00662E"/>
<path d="M605.107 268.584L582.177 291.514L605.107 314.444L628.036 291.514L605.107 268.584Z" fill="#00662E"/>
<path d="M582.177 340.749C582.924 337.857 584.43 335.121 586.694 332.856L605.107 314.444L582.177 291.514L559.247 314.444L577.66 332.856C579.924 335.121 581.43 337.857 582.177 340.749Z" fill="#00662E"/>
<path d="M623.519 357.329L605.107 375.742L628.036 398.671L650.966 375.742L632.554 357.329C630.289 355.065 628.783 352.328 628.036 349.437C627.289 352.328 625.784 355.065 623.519 357.329Z" fill="#00662E"/>
<path d="M582.177 398.671L605.107 421.601L628.036 398.671L605.107 375.742L582.177 398.671Z" fill="#00662E"/>
<path d="M559.247 375.742L582.177 398.671L605.107 375.742L586.694 357.329C584.43 355.065 582.924 352.328 582.177 349.437C581.43 352.328 579.924 355.065 577.66 357.329L559.247 375.742Z" fill="#00662E"/>
<path d="M605.107 421.601L628.036 444.531L650.966 421.601L628.036 398.671L605.107 421.601Z" fill="#00662E"/>
<path d="M638.729 455.223C645.487 461.982 656.444 461.982 663.203 455.223L673.896 444.531L650.966 421.601L628.036 444.531L638.729 455.223Z" fill="#00662E"/>
<path d="M650.966 421.601L673.896 398.671L650.966 375.742L628.036 398.671L650.966 421.601Z" fill="#00662E"/>
<path d="M852.815 332.856L851.048 334.624L852.815 332.856ZM852.815 357.329L851.048 355.562L852.815 357.329ZM806.956 332.856L808.724 331.088L806.956 332.856ZM806.956 357.329L808.724 359.097L806.956 357.329ZM761.097 332.856L759.329 334.624L761.097 332.856ZM761.097 357.329L759.329 355.562L761.097 357.329ZM311.538 332.856L309.771 331.088L311.538 332.856ZM311.538 357.329L309.771 359.097L311.538 357.329ZM265.679 332.856L267.447 334.624L265.679 332.856ZM265.679 357.329L263.911 359.097L265.679 357.329ZM219.82 332.856L221.588 334.624L219.82 332.856ZM219.82 357.329L218.052 359.097L219.82 357.329ZM307.021 245.655L308.789 243.887L307.021 242.119L305.253 243.887L307.021 245.655ZM307.021 444.531L305.253 446.298L307.021 448.066L308.789 446.298L307.021 444.531ZM352.88 245.655L354.648 243.887L352.88 242.119L351.113 243.887L352.88 245.655ZM375.81 314.444L374.042 316.211L375.81 317.979L377.578 316.211L375.81 314.444ZM375.81 375.742L377.578 373.974L375.81 372.206L374.042 373.974L375.81 375.742ZM352.88 444.531L351.113 446.298L352.88 448.066L354.648 446.298L352.88 444.531ZM398.74 444.531L396.972 446.298L398.74 448.066L400.507 446.298L398.74 444.531ZM444.599 444.531L442.831 446.298L444.599 448.066L446.367 446.298L444.599 444.531ZM398.74 245.655L400.507 243.887L398.74 242.119L396.972 243.887L398.74 245.655ZM444.599 245.655L446.367 243.887L444.599 242.119L442.831 243.887L444.599 245.655ZM421.669 314.444L419.902 316.211L421.669 317.979L423.437 316.211L421.669 314.444ZM398.74 340.749L401.16 340.123L398.74 330.751L396.319 340.123L398.74 340.749ZM490.458 245.655L492.226 243.887L490.458 242.119L488.691 243.887L490.458 245.655ZM421.669 375.742L423.437 373.974L421.669 372.206L419.902 373.974L421.669 375.742ZM398.74 349.437L396.319 350.062L398.74 359.434L401.16 350.062L398.74 349.437ZM490.458 444.531L488.691 446.298L490.458 448.066L492.226 446.298L490.458 444.531ZM536.318 444.531L534.55 446.298L536.318 448.066L538.085 446.298L536.318 444.531ZM467.529 375.742L469.296 373.974L467.529 372.206L465.761 373.974L467.529 375.742ZM444.599 349.437L442.178 350.062L444.599 359.434L447.02 350.062L444.599 349.437ZM467.529 314.444L465.761 316.211L467.529 317.979L469.296 316.211L467.529 314.444ZM444.599 340.749L447.02 340.123L444.599 330.751L442.178 340.123L444.599 340.749ZM536.318 245.655L538.085 243.887L536.318 242.119L534.55 243.887L536.318 245.655ZM513.388 314.444L511.62 316.211L513.388 317.979L515.156 316.211L513.388 314.444ZM490.458 340.748L492.879 340.123L490.458 330.751L488.038 340.123L490.458 340.748ZM513.388 375.742L515.156 373.974L513.388 372.206L511.62 373.974L513.388 375.742ZM490.458 349.437L488.038 350.062L490.458 359.434L492.879 350.062L490.458 349.437ZM582.177 444.531L580.409 446.298L582.177 448.066L583.945 446.298L582.177 444.531ZM628.036 444.531L626.268 446.298L628.036 448.066L629.804 446.298L628.036 444.531ZM559.247 375.742L561.015 373.974L559.247 372.206L557.48 373.974L559.247 375.742ZM536.318 349.437L533.897 350.062L536.318 359.434L538.738 350.062L536.318 349.437ZM559.247 314.444L557.48 316.211L559.247 317.979L561.015 316.211L559.247 314.444ZM536.318 340.748L538.738 340.123L536.318 330.751L533.897 340.123L536.318 340.748ZM582.177 245.655L583.945 243.887L582.177 242.119L580.409 243.887L582.177 245.655ZM628.036 245.655L629.804 243.887L628.036 242.119L626.268 243.887L628.036 245.655ZM696.825 314.444L695.057 316.211L696.825 317.979L698.593 316.211L696.825 314.444ZM696.825 375.742L698.593 373.974L696.825 372.206L695.057 373.974L696.825 375.742ZM765.614 245.655L767.382 243.887L765.614 242.119L763.846 243.887L765.614 245.655ZM765.614 444.531L763.846 446.298L765.614 448.066L767.382 446.298L765.614 444.531ZM719.755 444.531L717.987 446.298L719.755 448.066L721.523 446.298L719.755 444.531ZM673.896 444.531L672.128 446.298L673.896 448.066L675.663 446.298L673.896 444.531ZM673.896 349.437L671.475 350.062L673.896 359.434L676.316 350.062L673.896 349.437ZM650.966 375.742L652.734 373.974L650.966 372.206L649.198 373.974L650.966 375.742ZM673.896 340.748L676.316 340.123L673.896 330.751L671.475 340.123L673.896 340.748ZM650.966 314.444L649.198 316.211L650.966 317.979L652.734 316.211L650.966 314.444ZM673.896 245.655L675.663 243.887L673.896 242.119L672.128 243.887L673.896 245.655ZM719.755 245.655L721.523 243.887L719.755 242.119L717.987 243.887L719.755 245.655ZM605.107 314.444L603.339 316.211L605.107 317.979L606.874 316.211L605.107 314.444ZM628.036 340.749L630.457 340.123L628.036 330.751L625.616 340.123L628.036 340.749ZM582.177 340.749L584.597 340.123L582.177 330.751L579.756 340.123L582.177 340.749ZM605.107 375.742L606.874 373.974L605.107 372.206L603.339 373.974L605.107 375.742ZM628.036 349.437L625.616 350.062L628.036 359.434L630.457 350.062L628.036 349.437ZM582.177 349.437L579.756 350.062L582.177 359.434L584.597 350.062L582.177 349.437ZM851.048 334.624C856.829 340.405 856.829 349.78 851.048 355.562L854.583 359.097C862.318 351.363 862.318 338.823 854.583 331.088L851.048 334.624ZM805.188 334.624C810.97 340.405 810.97 349.78 805.188 355.562L808.724 359.097C816.458 351.363 816.458 338.823 808.724 331.088L805.188 334.624ZM759.329 334.624C765.111 340.405 765.111 349.78 759.329 355.562L762.864 359.097C770.599 351.363 770.599 338.823 762.864 331.088L759.329 334.624ZM309.771 331.088C302.036 338.823 302.036 351.363 309.771 359.097L313.306 355.562C307.524 349.78 307.524 340.405 313.306 334.624L309.771 331.088ZM263.911 331.088C256.177 338.823 256.177 351.363 263.911 359.097L267.447 355.562C261.665 349.78 261.665 340.405 267.447 334.624L263.911 331.088ZM218.052 331.088C210.318 338.823 210.318 351.363 218.052 359.097L221.588 355.562C215.806 349.78 215.806 340.405 221.588 334.624L218.052 331.088ZM221.588 334.624L308.789 247.422L305.253 243.887L218.052 331.088L221.588 334.624ZM308.789 442.763L221.588 355.562L218.052 359.097L305.253 446.298L308.789 442.763ZM267.447 334.624L331.719 270.352L328.183 266.816L263.911 331.088L267.447 334.624ZM331.719 266.816L308.789 243.887L305.253 247.422L328.183 270.352L331.719 266.816ZM308.789 446.298L331.719 423.369L328.183 419.833L305.253 442.763L308.789 446.298ZM331.719 419.833L267.447 355.562L263.911 359.097L328.183 423.369L331.719 419.833ZM331.719 270.352L354.648 247.422L351.113 243.887L328.183 266.816L331.719 270.352ZM313.306 334.624L354.648 293.282L351.113 289.746L309.771 331.088L313.306 334.624ZM354.648 289.746L331.719 266.816L328.183 270.352L351.113 293.282L354.648 289.746ZM331.719 423.369L354.648 400.439L351.113 396.904L328.183 419.833L331.719 423.369ZM354.648 396.904L313.306 355.562L309.771 359.097L351.113 400.439L354.648 396.904ZM377.578 312.676L354.648 289.746L351.113 293.282L374.042 316.211L377.578 312.676ZM354.648 400.439L377.578 377.509L374.042 373.974L351.113 396.904L354.648 400.439ZM354.648 446.298L377.578 423.369L374.042 419.833L351.113 442.763L354.648 446.298ZM377.578 419.833L354.648 396.904L351.113 400.439L374.042 423.369L377.578 419.833ZM328.183 423.369L351.113 446.298L354.648 442.763L331.719 419.833L328.183 423.369ZM377.578 423.369L400.507 400.439L396.972 396.903L374.042 419.833L377.578 423.369ZM400.507 396.903L377.578 373.974L374.042 377.509L396.972 400.439L400.507 396.903ZM400.507 446.298L423.437 423.369L419.902 419.833L396.972 442.763L400.507 446.298ZM423.437 419.833L400.507 396.903L396.972 400.439L419.902 423.369L423.437 419.833ZM374.042 423.369L396.972 446.298L400.507 442.763L377.578 419.833L374.042 423.369ZM446.367 442.763L423.437 419.833L419.902 423.369L442.831 446.298L446.367 442.763ZM400.507 289.746L377.578 266.816L374.042 270.352L396.972 293.282L400.507 289.746ZM374.042 266.816L351.113 289.746L354.648 293.282L377.578 270.352L374.042 266.816ZM377.578 316.211L400.507 293.282L396.972 289.746L374.042 312.676L377.578 316.211ZM351.113 247.422L374.042 270.352L377.578 266.816L354.648 243.887L351.113 247.422ZM423.437 266.816L400.507 243.887L396.972 247.422L419.902 270.352L423.437 266.816ZM396.972 243.887L374.042 266.816L377.578 270.352L400.507 247.422L396.972 243.887ZM400.507 293.282L423.437 270.352L419.902 266.816L396.972 289.746L400.507 293.282ZM423.437 270.352L446.367 247.422L442.831 243.887L419.902 266.816L423.437 270.352ZM423.437 312.676L400.507 289.746L396.972 293.282L419.902 316.211L423.437 312.676ZM423.437 316.211L446.367 293.282L442.831 289.746L419.902 312.676L423.437 316.211ZM446.367 289.746L423.437 266.816L419.902 270.352L442.831 293.282L446.367 289.746ZM446.367 293.282L469.296 270.352L465.761 266.816L442.831 289.746L446.367 293.282ZM469.296 266.816L446.367 243.887L442.831 247.422L465.761 270.352L469.296 266.816ZM469.296 270.352L492.226 247.422L488.691 243.887L465.761 266.816L469.296 270.352ZM400.507 400.439L423.437 377.509L419.902 373.974L396.972 396.903L400.507 400.439ZM396.319 340.123C395.478 343.379 395.478 346.806 396.319 350.062L401.16 348.811C400.531 346.376 400.531 343.809 401.16 341.374L396.319 340.123ZM396.319 341.374C396.948 343.809 396.948 346.376 396.319 348.811L401.16 350.062C402.001 346.806 402.001 343.379 401.16 340.123L396.319 341.374ZM423.437 423.369L446.367 400.439L442.831 396.904L419.902 419.833L423.437 423.369ZM446.367 396.904L423.437 373.974L419.902 377.509L442.831 400.439L446.367 396.904ZM446.367 446.298L469.296 423.369L465.761 419.833L442.831 442.763L446.367 446.298ZM469.296 419.833L446.367 396.904L442.831 400.439L465.761 423.369L469.296 419.833ZM492.226 442.763L469.296 419.833L465.761 423.369L488.691 446.298L492.226 442.763ZM538.085 442.763L515.156 419.833L511.62 423.369L534.55 446.298L538.085 442.763ZM511.62 419.833L488.691 442.763L492.226 446.298L515.156 423.369L511.62 419.833ZM488.691 396.903L465.761 419.833L469.296 423.369L492.226 400.439L488.691 396.903ZM515.156 419.833L492.226 396.903L488.691 400.439L511.62 423.369L515.156 419.833ZM465.761 373.974L442.831 396.904L446.367 400.439L469.296 377.509L465.761 373.974ZM492.226 396.903L469.296 373.974L465.761 377.509L488.691 400.439L492.226 396.903ZM469.296 312.676L446.367 289.746L442.831 293.282L465.761 316.211L469.296 312.676ZM442.178 341.374C442.808 343.809 442.808 346.376 442.178 348.811L447.02 350.062C447.861 346.806 447.861 343.379 447.02 340.123L442.178 341.374ZM442.178 340.123C441.338 343.379 441.338 346.806 442.178 350.062L447.02 348.811C446.391 346.376 446.391 343.809 447.02 341.374L442.178 340.123ZM469.296 316.211L492.226 293.282L488.691 289.746L465.761 312.676L469.296 316.211ZM492.226 289.746L469.296 266.816L465.761 270.352L488.691 293.282L492.226 289.746ZM492.226 293.282L515.156 270.352L511.62 266.816L488.691 289.746L492.226 293.282ZM515.156 266.816L492.226 243.887L488.691 247.422L511.62 270.352L515.156 266.816ZM515.156 270.352L538.085 247.422L534.55 243.887L511.62 266.816L515.156 270.352ZM538.085 293.282L561.015 270.352L557.48 266.816L534.55 289.746L538.085 293.282ZM561.015 266.816L538.085 243.887L534.55 247.422L557.48 270.352L561.015 266.816ZM511.62 270.352L534.55 293.282L538.085 289.746L515.156 266.816L511.62 270.352ZM488.691 293.282L511.62 316.211L515.156 312.676L492.226 289.746L488.691 293.282ZM515.156 316.211L538.085 293.282L534.55 289.746L511.62 312.676L515.156 316.211ZM492.226 400.439L515.156 377.509L511.62 373.974L488.691 396.903L492.226 400.439ZM488.038 340.123C487.197 343.379 487.197 346.806 488.038 350.062L492.879 348.811C492.25 346.376 492.25 343.809 492.879 341.374L488.038 340.123ZM488.038 341.374C488.667 343.809 488.667 346.376 488.038 348.811L492.879 350.062C493.72 346.806 493.72 343.379 492.879 340.123L488.038 341.374ZM515.156 423.369L538.085 400.439L534.55 396.903L511.62 419.833L515.156 423.369ZM538.085 396.903L515.156 373.974L511.62 377.509L534.55 400.439L538.085 396.903ZM538.085 446.298L561.015 423.369L557.48 419.833L534.55 442.763L538.085 446.298ZM561.015 419.833L538.085 396.903L534.55 400.439L557.48 423.369L561.015 419.833ZM583.945 442.763L561.015 419.833L557.48 423.369L580.409 446.298L583.945 442.763ZM629.804 442.763L606.874 419.833L603.339 423.369L626.268 446.298L629.804 442.763ZM603.339 419.833L580.409 442.763L583.945 446.298L606.874 423.369L603.339 419.833ZM580.409 396.904L557.48 419.833L561.015 423.369L583.945 400.439L580.409 396.904ZM606.874 419.833L583.945 396.904L580.409 400.439L603.339 423.369L606.874 419.833ZM557.48 373.974L534.55 396.903L538.085 400.439L561.015 377.509L557.48 373.974ZM583.945 396.904L561.015 373.974L557.48 377.509L580.409 400.439L583.945 396.904ZM561.015 312.676L538.085 289.746L534.55 293.282L557.48 316.211L561.015 312.676ZM533.897 340.123C533.056 343.379 533.056 346.806 533.897 350.062L538.738 348.811C538.109 346.376 538.109 343.809 538.738 341.374L533.897 340.123ZM533.897 341.374C534.526 343.809 534.526 346.376 533.897 348.811L538.738 350.062C539.579 346.806 539.579 343.379 538.738 340.123L533.897 341.374ZM561.015 316.211L583.945 293.282L580.409 289.746L557.48 312.676L561.015 316.211ZM583.945 289.746L561.015 266.816L557.48 270.352L580.409 293.282L583.945 289.746ZM606.874 266.816L583.945 243.887L580.409 247.422L603.339 270.352L606.874 266.816ZM580.409 243.887L557.48 266.816L561.015 270.352L583.945 247.422L580.409 243.887ZM583.945 293.282L606.874 270.352L603.339 266.816L580.409 289.746L583.945 293.282ZM606.874 270.352L629.804 247.422L626.268 243.887L603.339 266.816L606.874 270.352ZM717.987 289.746L695.057 312.676L698.593 316.211L721.523 293.282L717.987 289.746ZM695.057 377.509L717.987 400.439L721.523 396.904L698.593 373.974L695.057 377.509ZM721.523 400.439L762.864 359.097L759.329 355.562L717.987 396.904L721.523 400.439ZM762.864 331.088L721.523 289.746L717.987 293.282L759.329 334.624L762.864 331.088ZM808.724 331.088L744.452 266.816L740.917 270.352L805.188 334.624L808.724 331.088ZM740.917 266.816L717.987 289.746L721.523 293.282L744.452 270.352L740.917 266.816ZM717.987 400.439L740.917 423.369L744.452 419.833L721.523 396.904L717.987 400.439ZM744.452 423.369L808.724 359.097L805.188 355.562L740.917 419.833L744.452 423.369ZM854.583 331.088L767.382 243.887L763.846 247.422L851.048 334.624L854.583 331.088ZM763.846 243.887L740.917 266.816L744.452 270.352L767.382 247.422L763.846 243.887ZM740.917 423.369L763.846 446.298L767.382 442.763L744.452 419.833L740.917 423.369ZM767.382 446.298L854.583 359.097L851.048 355.562L763.846 442.763L767.382 446.298ZM740.917 419.833L717.987 442.763L721.523 446.298L744.452 423.369L740.917 419.833ZM717.987 396.904L695.057 419.833L698.593 423.369L721.523 400.439L717.987 396.904ZM695.057 423.369L717.987 446.298L721.523 442.763L698.593 419.833L695.057 423.369ZM695.057 419.833L672.128 442.763L675.663 446.298L698.593 423.369L695.057 419.833ZM672.128 396.903L649.198 419.833L652.734 423.369L675.663 400.439L672.128 396.903ZM649.198 423.369L672.128 446.298L675.663 442.763L652.734 419.833L649.198 423.369ZM698.593 419.833L675.663 396.903L672.128 400.439L695.057 423.369L698.593 419.833ZM695.057 373.974L672.128 396.903L675.663 400.439L698.593 377.509L695.057 373.974ZM649.198 419.833L626.268 442.763L629.804 446.298L652.734 423.369L649.198 419.833ZM649.198 377.509L672.128 400.439L675.663 396.903L652.734 373.974L649.198 377.509ZM671.475 341.374C672.104 343.809 672.104 346.376 671.475 348.812L676.316 350.062C677.157 346.806 677.157 343.379 676.316 340.123L671.475 341.374ZM671.475 340.123C670.634 343.379 670.634 346.806 671.475 350.062L676.316 348.811C675.687 346.376 675.687 343.809 676.316 341.374L671.475 340.123ZM672.128 289.746L649.198 312.676L652.734 316.211L675.663 293.282L672.128 289.746ZM698.593 312.676L675.663 289.746L672.128 293.282L695.057 316.211L698.593 312.676ZM649.198 266.816L626.268 289.746L629.804 293.282L652.734 270.352L649.198 266.816ZM626.268 293.282L649.198 316.211L652.734 312.676L629.804 289.746L626.268 293.282ZM675.663 289.746L652.734 266.816L649.198 270.352L672.128 293.282L675.663 289.746ZM603.339 270.352L626.268 293.282L629.804 289.746L606.874 266.816L603.339 270.352ZM626.268 247.422L649.198 270.352L652.734 266.816L629.804 243.887L626.268 247.422ZM652.734 270.352L675.663 247.422L672.128 243.887L649.198 266.816L652.734 270.352ZM675.663 293.282L698.593 270.352L695.057 266.816L672.128 289.746L675.663 293.282ZM698.593 266.816L675.663 243.887L672.128 247.422L695.057 270.352L698.593 266.816ZM695.057 270.352L717.987 293.282L721.523 289.746L698.593 266.816L695.057 270.352ZM744.452 266.816L721.523 243.887L717.987 247.422L740.917 270.352L744.452 266.816ZM717.987 243.887L695.057 266.816L698.593 270.352L721.523 247.422L717.987 243.887ZM580.409 293.282L603.339 316.211L606.874 312.676L583.945 289.746L580.409 293.282ZM606.874 316.211L629.804 293.282L626.268 289.746L603.339 312.676L606.874 316.211ZM603.339 377.509L626.268 400.439L629.804 396.904L606.874 373.974L603.339 377.509ZM629.804 400.439L652.734 377.509L649.198 373.974L626.268 396.904L629.804 400.439ZM625.616 340.123C624.775 343.379 624.775 346.806 625.616 350.062L630.457 348.811C629.828 346.376 629.828 343.809 630.457 341.374L625.616 340.123ZM625.616 341.374C626.245 343.809 626.245 346.376 625.616 348.811L630.457 350.062C631.298 346.806 631.298 343.379 630.457 340.123L625.616 341.374ZM626.268 396.904L603.339 419.833L606.874 423.369L629.804 400.439L626.268 396.904ZM652.734 419.833L629.804 396.904L626.268 400.439L649.198 423.369L652.734 419.833ZM603.339 373.974L580.409 396.904L583.945 400.439L606.874 377.509L603.339 373.974ZM579.756 340.123C578.915 343.379 578.915 346.806 579.756 350.062L584.597 348.811C583.968 346.376 583.968 343.809 584.597 341.374L579.756 340.123ZM579.756 341.374C580.385 343.809 580.385 346.376 579.756 348.811L584.597 350.062C585.438 346.806 585.438 343.379 584.597 340.123L579.756 341.374ZM800.781 455.223L797.245 451.688L800.781 455.223ZM776.307 455.223L779.843 451.688L776.307 455.223ZM898.675 332.856L902.21 329.32V329.32L898.675 332.856ZM898.675 357.329L902.21 360.865L898.675 357.329ZM776.307 234.962L779.843 238.497V238.497L776.307 234.962ZM800.781 234.962L797.245 238.497V238.497L800.781 234.962ZM678.413 332.856L681.948 336.391V336.391L678.413 332.856ZM678.413 357.329L681.948 353.794V353.794L678.413 357.329ZM754.921 455.223L751.386 451.688L754.921 455.223ZM730.448 455.223L733.983 451.688L730.448 455.223ZM730.448 234.962L726.912 231.426V231.426L730.448 234.962ZM754.921 234.962L751.386 238.497L754.921 234.962ZM632.554 332.856L629.018 329.32L629.018 329.32L632.554 332.856ZM632.554 357.329L629.018 360.865H629.018L632.554 357.329ZM709.062 455.223L705.526 451.688L709.062 455.223ZM684.588 455.223L688.124 451.688L684.588 455.223ZM684.588 234.962L681.053 231.426L684.588 234.962ZM709.062 234.962L712.597 231.426V231.426L709.062 234.962ZM586.694 332.856L583.159 329.32L583.159 329.32L586.694 332.856ZM586.694 357.329L590.23 353.794V353.794L586.694 357.329ZM663.203 455.223L659.667 451.688L663.203 455.223ZM638.729 455.223L642.265 451.688L638.729 455.223ZM638.729 234.962L635.194 231.426V231.426L638.729 234.962ZM663.203 234.962L666.738 231.426V231.426L663.203 234.962ZM540.835 332.856L544.37 336.391L540.835 332.856ZM540.835 357.329L537.299 360.865H537.299L540.835 357.329ZM617.343 455.223L613.808 451.688L617.343 455.223ZM592.87 455.223L589.334 458.759L592.87 455.223ZM715.237 332.856L718.773 329.32V329.32L715.237 332.856ZM715.237 357.329L718.773 360.865L715.237 357.329ZM592.87 234.962L596.405 238.497V238.497L592.87 234.962ZM617.343 234.962L620.879 231.426V231.426L617.343 234.962ZM494.976 357.329L491.44 360.865H491.44L494.976 357.329ZM571.484 455.223L567.949 451.688L571.484 455.223ZM547.011 455.223L543.475 458.759L547.011 455.223ZM669.378 332.856L665.843 336.391V336.391L669.378 332.856ZM669.378 357.329L665.843 353.794V353.794L669.378 357.329ZM547.011 234.962L543.475 231.426V231.426L547.011 234.962ZM571.484 234.962L575.02 231.426V231.426L571.484 234.962ZM449.116 332.856L445.581 329.32L445.581 329.32L449.116 332.856ZM449.116 357.329L452.652 353.794L449.116 357.329ZM525.625 455.223L522.089 451.688L525.625 455.223ZM501.151 455.223L497.616 458.759L501.151 455.223ZM623.519 332.856L627.054 329.32H627.054L623.519 332.856ZM623.519 357.329L627.054 360.865H627.054L623.519 357.329ZM501.151 234.962L497.616 231.426V231.426L501.151 234.962ZM525.625 234.962L522.089 238.497V238.497L525.625 234.962ZM403.257 332.856L399.722 329.32L403.257 332.856ZM403.257 357.329L406.793 353.794V353.794L403.257 357.329ZM479.765 455.223L476.23 451.688L479.765 455.223ZM455.292 455.223L458.827 451.688L455.292 455.223ZM577.66 332.856L581.195 329.32L581.195 329.32L577.66 332.856ZM577.66 357.329L574.124 353.794V353.794L577.66 357.329ZM455.292 234.962L458.827 238.497L455.292 234.962ZM479.765 234.962L476.23 238.497V238.497L479.765 234.962ZM357.398 332.856L353.862 329.32V329.32L357.398 332.856ZM357.398 357.329L353.862 360.865L357.398 357.329ZM433.906 455.223L430.371 451.688L433.906 455.223ZM409.433 455.223L412.968 451.688L409.433 455.223ZM531.8 332.856L535.336 329.32L531.8 332.856ZM531.8 357.329L535.336 360.865H535.336L531.8 357.329ZM409.433 234.962L405.897 231.426V231.426L409.433 234.962ZM433.906 234.962L437.442 231.426V231.426L433.906 234.962ZM388.047 455.223L384.511 451.688L388.047 455.223ZM363.573 455.223L360.038 458.759L363.573 455.223ZM485.941 332.856L482.405 336.391V336.391L485.941 332.856ZM485.941 357.329L489.476 360.865H489.476L485.941 357.329ZM363.573 234.962L360.038 231.426V231.426L363.573 234.962ZM388.047 234.962L384.511 238.497V238.497L388.047 234.962ZM342.188 455.223L338.652 451.688L342.188 455.223ZM317.714 455.223L321.25 451.688L317.714 455.223ZM440.082 332.856L443.617 329.32L443.617 329.32L440.082 332.856ZM440.082 357.329L436.546 353.794V353.794L440.082 357.329ZM317.714 234.962L321.25 238.497V238.497L317.714 234.962ZM342.188 234.962L338.652 238.497V238.497L342.188 234.962ZM296.328 455.223L299.864 458.759L296.328 455.223ZM271.855 455.223L275.39 451.688H275.39L271.855 455.223ZM394.222 332.856L397.758 329.32V329.32L394.222 332.856ZM394.222 357.329L390.687 353.794L390.687 353.794L394.222 357.329ZM271.855 234.962L268.319 231.426V231.426L271.855 234.962ZM296.328 234.962L299.864 231.426V231.426L296.328 234.962ZM173.961 332.856L177.496 336.391L173.961 332.856ZM173.961 357.329L170.425 360.865H170.425L173.961 357.329ZM307.021 245.655L303.486 249.19L307.021 252.726L310.557 249.19L307.021 245.655ZM307.021 444.531L310.557 440.995L307.021 437.459L303.486 440.995L307.021 444.531ZM352.88 245.655L349.345 249.19L352.88 252.726L356.416 249.19L352.88 245.655ZM375.81 314.444L379.346 310.908L375.81 307.372L372.275 310.908L375.81 314.444ZM375.81 375.742L372.275 379.277L375.81 382.813L379.346 379.277L375.81 375.742ZM352.88 444.531L356.416 440.995L352.88 437.459L349.345 440.995L352.88 444.531ZM398.74 444.531L402.275 440.995L398.74 437.46L395.204 440.995L398.74 444.531ZM444.599 444.531L448.135 440.995L444.599 437.459L441.064 440.995L444.599 444.531ZM398.74 245.655L395.204 249.19L398.74 252.726L402.275 249.19L398.74 245.655ZM444.599 245.655L441.064 249.19L444.599 252.726L448.135 249.19L444.599 245.655ZM421.669 314.444L425.205 310.908L421.669 307.372L418.134 310.908L421.669 314.444ZM398.74 340.749L393.899 341.999L398.74 360.743L403.581 341.999L398.74 340.749ZM490.458 245.655L486.923 249.19L490.458 252.726L493.994 249.19L490.458 245.655ZM421.669 375.742L418.134 379.277L421.669 382.813L425.205 379.277L421.669 375.742ZM398.74 349.437L403.581 348.186L398.74 329.442L393.899 348.186L398.74 349.437ZM490.458 444.531L493.994 440.995L490.458 437.459L486.923 440.995L490.458 444.531ZM536.318 444.531L539.853 440.995L536.318 437.459L532.782 440.995L536.318 444.531ZM467.529 375.742L463.993 379.277L467.529 382.813L471.064 379.277L467.529 375.742ZM444.599 349.437L449.44 348.186L444.599 329.442L439.758 348.186L444.599 349.437ZM467.529 314.444L471.064 310.908L467.529 307.372L463.993 310.908L467.529 314.444ZM444.599 340.749L439.758 341.999L444.599 360.743L449.44 341.999L444.599 340.749ZM536.318 245.655L532.782 249.19L536.318 252.726L539.853 249.19L536.318 245.655ZM513.388 314.444L516.923 310.908L513.388 307.372L509.852 310.908L513.388 314.444ZM490.458 340.748L485.617 341.999L490.458 360.743L495.299 341.999L490.458 340.748ZM513.388 375.742L509.852 379.277L513.388 382.813L516.924 379.277L513.388 375.742ZM490.458 349.437L495.299 348.186L490.458 329.442L485.617 348.186L490.458 349.437ZM582.177 444.531L585.712 440.995L582.177 437.459L578.641 440.995L582.177 444.531ZM628.036 444.531L631.572 440.995L628.036 437.46L624.501 440.995L628.036 444.531ZM559.247 375.742L555.712 379.277L559.247 382.813L562.783 379.277L559.247 375.742ZM536.318 349.437L541.159 348.186L536.318 329.442L531.476 348.186L536.318 349.437ZM559.247 314.444L562.783 310.908L559.247 307.372L555.712 310.908L559.247 314.444ZM536.318 340.748L531.476 341.999L536.318 360.743L541.159 341.999L536.318 340.748ZM582.177 245.655L578.641 249.19L582.177 252.726L585.712 249.19L582.177 245.655ZM628.036 245.655L624.501 249.19L628.036 252.726L631.572 249.19L628.036 245.655ZM696.825 314.444L700.361 310.908L696.825 307.372L693.29 310.908L696.825 314.444ZM696.825 375.742L693.29 379.277L696.825 382.813L700.361 379.277L696.825 375.742ZM765.614 245.655L762.079 249.19L765.614 252.726L769.15 249.19L765.614 245.655ZM765.614 444.531L769.15 440.995L765.614 437.46L762.079 440.995L765.614 444.531ZM719.755 444.531L723.29 440.995L719.755 437.46L716.219 440.995L719.755 444.531ZM673.896 444.531L677.431 440.995L673.896 437.46L670.36 440.995L673.896 444.531ZM673.896 349.437L678.737 348.186L673.896 329.443L669.054 348.186L673.896 349.437ZM650.966 375.742L647.43 379.277L650.966 382.813L654.501 379.277L650.966 375.742ZM673.896 340.748L669.054 341.999L673.895 360.743L678.737 341.999L673.896 340.748ZM650.966 314.444L654.501 310.908L650.966 307.372L647.43 310.908L650.966 314.444ZM673.896 245.655L670.36 249.19L673.896 252.726L677.431 249.19L673.896 245.655ZM719.755 245.655L716.219 249.19L719.755 252.726L723.29 249.19L719.755 245.655ZM605.107 314.444L608.642 310.908L605.107 307.372L601.571 310.908L605.107 314.444ZM628.036 340.749L623.195 341.999L628.036 360.743L632.877 341.999L628.036 340.749ZM582.177 340.749L577.336 341.999L582.177 360.743L587.018 341.999L582.177 340.749ZM605.107 375.742L601.571 379.277L605.107 382.813L608.642 379.277L605.107 375.742ZM628.036 349.437L632.877 348.186L628.036 329.442L623.195 348.186L628.036 349.437ZM582.177 349.437L587.018 348.186L582.177 329.442L577.336 348.186L582.177 349.437ZM797.245 238.497L895.139 336.391L902.21 329.32L804.316 231.426L797.245 238.497ZM895.139 353.794L797.245 451.688L804.316 458.759L902.21 360.865L895.139 353.794ZM797.245 451.688C792.439 456.493 784.648 456.493 779.843 451.688L772.771 458.759C781.482 467.47 795.605 467.47 804.316 458.759L797.245 451.688ZM895.139 336.391C899.945 341.197 899.945 348.988 895.139 353.794L902.21 360.865C910.921 352.154 910.921 338.031 902.21 329.32L895.139 336.391ZM779.843 238.497C784.648 233.692 792.439 233.692 797.245 238.497L804.316 231.426C795.605 222.715 781.482 222.715 772.771 231.426L779.843 238.497ZM751.386 451.688C746.58 456.493 738.789 456.493 733.983 451.688L726.912 458.759C735.623 467.47 749.746 467.47 758.457 458.759L751.386 451.688ZM733.983 238.497C738.789 233.692 746.58 233.692 751.386 238.497L758.457 231.426C749.746 222.715 735.623 222.715 726.912 231.426L733.983 238.497ZM705.526 451.688C700.721 456.493 692.929 456.493 688.124 451.688L681.053 458.759C689.764 467.47 703.887 467.47 712.597 458.759L705.526 451.688ZM688.124 238.497C692.929 233.692 700.721 233.692 705.526 238.497L712.597 231.426C703.887 222.715 689.764 222.715 681.053 231.426L688.124 238.497ZM659.667 451.688C654.862 456.493 647.07 456.493 642.265 451.688L635.194 458.759C643.904 467.47 658.027 467.47 666.738 458.759L659.667 451.688ZM642.265 238.497C647.07 233.692 654.862 233.692 659.667 238.497L666.738 231.426C658.027 222.715 643.904 222.715 635.194 231.426L642.265 238.497ZM613.808 451.688C609.002 456.493 601.211 456.493 596.405 451.688L589.334 458.759C598.045 467.47 612.168 467.47 620.879 458.759L613.808 451.688ZM711.702 336.391C716.507 341.197 716.507 348.988 711.702 353.794L718.773 360.865C727.484 352.154 727.484 338.031 718.773 329.32L711.702 336.391ZM596.405 238.497C601.211 233.692 609.002 233.692 613.808 238.497L620.879 231.426C612.168 222.715 598.045 222.715 589.334 231.426L596.405 238.497ZM567.949 451.688C563.143 456.493 555.352 456.493 550.546 451.688L543.475 458.759C552.186 467.47 566.309 467.47 575.02 458.759L567.949 451.688ZM550.546 238.497C555.352 233.692 563.143 233.692 567.949 238.497L575.02 231.426C566.309 222.715 552.186 222.715 543.475 231.426L550.546 238.497ZM522.089 451.688C517.284 456.493 509.492 456.493 504.687 451.688L497.616 458.759C506.326 467.47 520.449 467.47 529.16 458.759L522.089 451.688ZM504.687 238.497C509.492 233.692 517.284 233.692 522.089 238.497L529.16 231.426C520.449 222.715 506.326 222.715 497.616 231.426L504.687 238.497ZM476.23 451.688C471.424 456.493 463.633 456.493 458.827 451.688L451.756 458.759C460.467 467.47 474.59 467.47 483.301 458.759L476.23 451.688ZM458.827 238.497C463.633 233.692 471.424 233.692 476.23 238.497L483.301 231.426C474.59 222.715 460.467 222.715 451.756 231.426L458.827 238.497ZM353.862 329.32C345.151 338.031 345.151 352.154 353.862 360.865L360.933 353.794C356.128 348.988 356.128 341.197 360.933 336.391L353.862 329.32ZM430.371 451.688C425.565 456.493 417.774 456.493 412.968 451.688L405.897 458.759C414.608 467.47 428.731 467.47 437.442 458.759L430.371 451.688ZM412.968 238.497C417.774 233.692 425.565 233.692 430.371 238.497L437.442 231.426C428.731 222.715 414.608 222.715 405.897 231.426L412.968 238.497ZM384.511 451.688C379.706 456.493 371.914 456.493 367.109 451.688L360.038 458.759C368.749 467.47 382.872 467.47 391.582 458.759L384.511 451.688ZM367.109 238.497C371.914 233.692 379.706 233.692 384.511 238.497L391.582 231.426C382.872 222.715 368.749 222.715 360.038 231.426L367.109 238.497ZM338.652 451.688C333.846 456.493 326.055 456.493 321.25 451.688L314.178 458.759C322.889 467.47 337.012 467.47 345.723 458.759L338.652 451.688ZM321.25 238.497C326.055 233.692 333.846 233.692 338.652 238.497L345.723 231.426C337.012 222.715 322.889 222.715 314.178 231.426L321.25 238.497ZM177.496 336.391L275.39 238.497L268.319 231.426L170.425 329.32L177.496 336.391ZM275.39 451.688L177.496 353.794L170.425 360.865L268.319 458.759L275.39 451.688ZM292.793 451.688C287.987 456.493 280.196 456.493 275.39 451.688L268.319 458.759C277.03 467.47 291.153 467.47 299.864 458.759L292.793 451.688ZM275.39 238.497C280.196 233.692 287.987 233.692 292.793 238.497L299.864 231.426C291.153 222.715 277.03 222.715 268.319 231.426L275.39 238.497ZM170.425 329.32C161.714 338.031 161.714 352.154 170.425 360.865L177.496 353.794C172.691 348.988 172.691 341.197 177.496 336.391L170.425 329.32ZM310.557 242.119L299.864 231.426L292.793 238.497L303.486 249.19L310.557 242.119ZM299.864 458.759L310.557 448.066L303.486 440.995L292.793 451.688L299.864 458.759ZM321.25 451.688L310.557 440.995L303.486 448.066L314.178 458.759L321.25 451.688ZM310.557 249.19L321.25 238.497L314.178 231.426L303.486 242.119L310.557 249.19ZM356.416 242.119L345.723 231.426L338.652 238.497L349.345 249.19L356.416 242.119ZM356.416 249.19L367.109 238.497L360.038 231.426L349.345 242.119L356.416 249.19ZM360.933 336.391L379.346 317.979L372.275 310.908L353.862 329.32L360.933 336.391ZM379.346 372.206L360.933 353.794L353.862 360.865L372.275 379.277L379.346 372.206ZM390.687 353.794L372.275 372.206L379.346 379.277L397.758 360.865L390.687 353.794ZM372.275 317.979L390.687 336.391L397.758 329.32L379.346 310.908L372.275 317.979ZM367.109 451.688L356.416 440.995L349.345 448.066L360.038 458.759L367.109 451.688ZM349.345 440.995L338.652 451.688L345.723 458.759L356.416 448.066L349.345 440.995ZM412.968 451.688L402.275 440.995L395.204 448.066L405.897 458.759L412.968 451.688ZM395.204 440.995L384.511 451.688L391.582 458.759L402.275 448.066L395.204 440.995ZM437.442 458.759L448.135 448.066L441.064 440.995L430.371 451.688L437.442 458.759ZM458.827 451.688L448.135 440.995L441.064 448.066L451.756 458.759L458.827 451.688ZM402.275 249.19L412.968 238.497L405.897 231.426L395.204 242.119L402.275 249.19ZM384.511 238.497L395.204 249.19L402.275 242.119L391.582 231.426L384.511 238.497ZM448.135 242.119L437.442 231.426L430.371 238.497L441.064 249.19L448.135 242.119ZM448.135 249.19L458.827 238.497L451.756 231.426L441.064 242.119L448.135 249.19ZM406.793 336.391L425.205 317.979L418.134 310.908L399.722 329.32L406.793 336.391ZM390.687 336.391C392.303 338.008 393.369 339.948 393.899 341.999L403.581 339.498C402.617 335.765 400.671 332.234 397.758 329.32L390.687 336.391ZM403.581 341.999C404.111 339.948 405.176 338.008 406.793 336.391L399.722 329.32C396.808 332.234 394.863 335.765 393.899 339.498L403.581 341.999ZM418.134 317.979L436.546 336.391L443.617 329.32L425.205 310.908L418.134 317.979ZM493.994 242.119L483.301 231.426L476.23 238.497L486.923 249.19L493.994 242.119ZM493.994 249.19L504.687 238.497L497.616 231.426L486.923 242.119L493.994 249.19ZM425.205 372.206L406.793 353.794L399.722 360.865L418.134 379.277L425.205 372.206ZM406.793 353.794C405.176 352.178 404.111 350.237 403.581 348.186L393.899 350.687C394.863 354.42 396.808 357.952 399.722 360.865L406.793 353.794ZM393.899 348.186C393.369 350.237 392.303 352.178 390.687 353.794L397.758 360.865C400.671 357.952 402.617 354.42 403.581 350.687L393.899 348.186ZM436.546 353.794L418.134 372.206L425.205 379.277L443.617 360.865L436.546 353.794ZM483.301 458.759L493.994 448.066L486.923 440.995L476.23 451.688L483.301 458.759ZM504.687 451.688L493.994 440.995L486.923 448.066L497.616 458.759L504.687 451.688ZM529.16 458.759L539.853 448.066L532.782 440.995L522.089 451.688L529.16 458.759ZM550.546 451.688L539.853 440.995L532.782 448.066L543.475 458.759L550.546 451.688ZM471.064 372.206L452.652 353.794L445.581 360.865L463.993 379.277L471.064 372.206ZM482.405 353.794L463.993 372.206L471.064 379.277L489.476 360.865L482.405 353.794ZM452.652 353.794C451.036 352.178 449.97 350.237 449.44 348.186L439.758 350.687C440.722 354.42 442.668 357.952 445.581 360.865L452.652 353.794ZM439.758 348.186C439.228 350.237 438.162 352.178 436.546 353.794L443.617 360.865C446.53 357.952 448.476 354.42 449.44 350.687L439.758 348.186ZM452.652 336.391L471.064 317.979L463.993 310.908L445.581 329.32L452.652 336.391ZM436.546 336.391C438.162 338.008 439.228 339.948 439.758 341.999L449.44 339.498C448.476 335.765 446.53 332.234 443.617 329.32L436.546 336.391ZM449.44 341.999C449.97 339.948 451.036 338.008 452.652 336.391L445.581 329.32C442.668 332.234 440.722 335.766 439.758 339.498L449.44 341.999ZM463.993 317.979L482.405 336.391L489.476 329.32L471.064 310.908L463.993 317.979ZM539.853 242.119L529.16 231.426L522.089 238.497L532.782 249.19L539.853 242.119ZM539.853 249.19L550.546 238.497L543.475 231.426L532.782 242.119L539.853 249.19ZM498.511 336.391L516.923 317.979L509.852 310.908L491.44 329.32L498.511 336.391ZM509.852 317.979L528.265 336.391L535.336 329.32L516.923 310.908L509.852 317.979ZM495.299 341.999C495.829 339.948 496.895 338.008 498.511 336.391L491.44 329.32C488.527 332.234 486.581 335.765 485.617 339.498L495.299 341.999ZM482.405 336.391C484.022 338.007 485.087 339.948 485.617 341.999L495.299 339.498C494.335 335.765 492.39 332.234 489.476 329.32L482.405 336.391ZM516.924 372.206L498.511 353.794L491.44 360.865L509.852 379.277L516.924 372.206ZM498.511 353.794C496.895 352.178 495.829 350.237 495.299 348.186L485.617 350.687C486.581 354.42 488.527 357.952 491.44 360.865L498.511 353.794ZM485.617 348.186C485.088 350.237 484.022 352.178 482.405 353.794L489.476 360.865C492.39 357.952 494.335 354.42 495.299 350.687L485.617 348.186ZM528.265 353.794L509.852 372.206L516.924 379.277L535.336 360.865L528.265 353.794ZM575.02 458.759L585.712 448.066L578.641 440.995L567.949 451.688L575.02 458.759ZM596.405 451.688L585.712 440.995L578.641 448.066L589.334 458.759L596.405 451.688ZM620.879 458.759L631.572 448.066L624.501 440.995L613.808 451.688L620.879 458.759ZM642.265 451.688L631.572 440.995L624.501 448.066L635.194 458.759L642.265 451.688ZM562.783 372.206L544.371 353.794L537.299 360.865L555.712 379.277L562.783 372.206ZM574.124 353.794L555.712 372.206L562.783 379.277L581.195 360.865L574.124 353.794ZM544.371 353.794C542.754 352.178 541.688 350.237 541.159 348.186L531.476 350.687C532.441 354.42 534.386 357.952 537.299 360.865L544.371 353.794ZM531.476 348.186C530.947 350.237 529.881 352.178 528.265 353.794L535.336 360.865C538.249 357.952 540.195 354.42 541.159 350.687L531.476 348.186ZM544.37 336.391L562.783 317.979L555.712 310.908L537.299 329.32L544.37 336.391ZM528.265 336.391C529.881 338.008 530.947 339.948 531.476 341.999L541.159 339.498C540.195 335.765 538.249 332.234 535.336 329.32L528.265 336.391ZM541.159 341.999C541.688 339.948 542.754 338.007 544.37 336.391L537.299 329.32C534.386 332.234 532.441 335.765 531.476 339.498L541.159 341.999ZM555.712 317.979L574.124 336.391L581.195 329.32L562.783 310.908L555.712 317.979ZM585.712 249.19L596.405 238.497L589.334 231.426L578.641 242.119L585.712 249.19ZM567.949 238.497L578.641 249.19L585.712 242.119L575.02 231.426L567.949 238.497ZM631.572 242.119L620.879 231.426L613.808 238.497L624.501 249.19L631.572 242.119ZM631.572 249.19L642.265 238.497L635.194 231.426L624.501 242.119L631.572 249.19ZM693.29 317.979L711.702 336.391L718.773 329.32L700.361 310.908L693.29 317.979ZM711.702 353.794L693.29 372.206L700.361 379.277L718.773 360.865L711.702 353.794ZM700.361 372.206L681.948 353.794L674.877 360.865L693.29 379.277L700.361 372.206ZM681.948 336.391L700.361 317.979L693.29 310.908L674.877 329.32L681.948 336.391ZM779.843 451.688L769.15 440.995L762.079 448.066L772.771 458.759L779.843 451.688ZM762.079 440.995L751.386 451.688L758.457 458.759L769.15 448.066L762.079 440.995ZM769.15 249.19L779.843 238.497L772.771 231.426L762.079 242.119L769.15 249.19ZM751.386 238.497L762.079 249.19L769.15 242.119L758.457 231.426L751.386 238.497ZM716.219 448.066L726.912 458.759L733.983 451.688L723.29 440.995L716.219 448.066ZM716.219 440.995L705.526 451.688L712.597 458.759L723.29 448.066L716.219 440.995ZM670.36 448.066L681.053 458.759L688.124 451.688L677.431 440.995L670.36 448.066ZM670.36 440.995L659.667 451.688L666.738 458.759L677.431 448.066L670.36 440.995ZM681.948 353.794C680.332 352.178 679.266 350.237 678.737 348.186L669.054 350.687C670.018 354.42 671.964 357.952 674.877 360.865L681.948 353.794ZM669.054 348.186C668.525 350.237 667.459 352.178 665.843 353.794L672.914 360.865C675.827 357.952 677.773 354.42 678.737 350.687L669.054 348.186ZM665.843 353.794L647.43 372.206L654.501 379.277L672.914 360.865L665.843 353.794ZM654.501 372.206L636.089 353.794L629.018 360.865L647.43 379.277L654.501 372.206ZM674.877 329.32C671.964 332.234 670.018 335.765 669.054 339.498L678.737 341.999C679.266 339.948 680.332 338.007 681.948 336.391L674.877 329.32ZM665.843 336.391C667.459 338.007 668.525 339.948 669.054 341.999L678.737 339.498C677.773 335.765 675.827 332.234 672.914 329.32L665.843 336.391ZM647.43 317.979L665.843 336.391L672.914 329.32L654.501 310.908L647.43 317.979ZM636.089 336.391L654.501 317.979L647.43 310.908L629.018 329.32L636.089 336.391ZM677.431 242.119L666.738 231.426L659.667 238.497L670.36 249.19L677.431 242.119ZM677.431 249.19L688.124 238.497L681.053 231.426L670.36 242.119L677.431 249.19ZM723.29 249.19L733.983 238.497L726.912 231.426L716.219 242.119L723.29 249.19ZM705.526 238.497L716.219 249.19L723.29 242.119L712.597 231.426L705.526 238.497ZM590.23 336.391L608.642 317.979L601.571 310.908L583.159 329.32L590.23 336.391ZM601.571 317.979L619.983 336.391L627.054 329.32L608.642 310.908L601.571 317.979ZM632.877 341.999C633.407 339.948 634.473 338.008 636.089 336.391L629.018 329.32C626.105 332.234 624.159 335.765 623.195 339.498L632.877 341.999ZM619.983 336.391C621.599 338.008 622.665 339.948 623.195 341.999L632.877 339.498C631.913 335.765 629.968 332.234 627.054 329.32L619.983 336.391ZM587.018 341.999C587.548 339.948 588.614 338.008 590.23 336.391L583.159 329.32C580.245 332.234 578.3 335.766 577.336 339.498L587.018 341.999ZM574.124 336.391C575.74 338.008 576.806 339.948 577.336 341.999L587.018 339.498C586.054 335.765 584.108 332.234 581.195 329.32L574.124 336.391ZM619.983 353.794L601.571 372.206L608.642 379.277L627.054 360.865L619.983 353.794ZM636.089 353.794C634.473 352.178 633.407 350.237 632.877 348.186L623.195 350.687C624.159 354.42 626.105 357.952 629.018 360.865L636.089 353.794ZM623.195 348.186C622.665 350.237 621.599 352.178 619.983 353.794L627.054 360.865C629.968 357.952 631.913 354.42 632.877 350.687L623.195 348.186ZM608.642 372.206L590.23 353.794L583.159 360.865L601.571 379.277L608.642 372.206ZM590.23 353.794C588.614 352.178 587.548 350.237 587.018 348.186L577.336 350.687C578.3 354.42 580.245 357.952 583.159 360.865L590.23 353.794ZM577.336 348.186C576.806 350.237 575.74 352.178 574.124 353.794L581.195 360.865C584.108 357.952 586.054 354.42 587.018 350.687L577.336 348.186Z" fill="#004F24" mask="url(#path-2-inside-1_11_234)"/>
</g>
<defs>
<filter id="filter0_d_11_234" x="0.817627" y="0.0925293" width="1071" height="698" filterUnits="userSpaceOnUse" color-interpolation-filters="sRGB">
<feFlood flood-opacity="0" result="BackgroundImageFix"/>
<feColorMatrix in="SourceAlpha" type="matrix" values="0 0 0 0 0 0 0 0 0 0 0 0 0 0 0 0 0 0 127 0" result="hardAlpha"/>
<feOffset dy="4"/>
<feGaussianBlur stdDeviation="15"/>
<feComposite in2="hardAlpha" operator="out"/>
<feColorMatrix type="matrix" values="0 0 0 0 0 0 0 0 0 0 0 0 0 0 0 0 0 0 0.46 0"/>
<feBlend mode="normal" in2="BackgroundImageFix" result="effect1_dropShadow_11_234"/>
<feBlend mode="normal" in="SourceGraphic" in2="effect1_dropShadow_11_234" result="shape"/>
</filter>
</defs>
</svg>
