<svg width="1072" height="698" viewBox="0 0 1072 698" fill="none" xmlns="http://www.w3.org/2000/svg">
<g filter="url(#filter0_d_6_74)">
<g clip-path="url(#clip0_6_74)">
<rect x="30.4526" y="26.0002" width="1011" height="638" rx="37.5" fill="#990000"/>
<path fill-rule="evenodd" clip-rule="evenodd" d="M30.4526 272.613L72.4526 288.467C114.453 304.321 199.453 337.615 283.453 312.248C367.453 288.467 451.453 209.197 536.453 177.489C620.453 144.195 704.453 160.049 788.453 128.341C873.453 96.6328 957.453 17.3625 999.453 -23.8581L1041.45 -63.4933V416.885H999.453C957.453 416.885 873.453 416.885 788.453 416.885C704.453 416.885 620.453 416.885 536.453 416.885C451.453 416.885 367.453 416.885 283.453 416.885C199.453 416.885 114.453 416.885 72.4526 416.885H30.4526V272.613Z" fill="#CC0000"/>
<path fill-rule="evenodd" clip-rule="evenodd" d="M-58.9839 312.069L-13.1324 285.521C32.7192 258.973 124.422 205.876 216.125 179.328C307.828 152.78 399.531 152.78 491.234 179.328C582.937 205.876 674.641 258.973 766.344 285.521C858.047 312.069 949.75 312.069 995.601 312.069H1041.45V439.5H995.601C949.75 439.5 858.047 439.5 766.344 439.5C674.641 439.5 582.937 439.5 491.234 439.5C399.531 439.5 307.828 439.5 216.125 439.5C124.422 439.5 32.7192 439.5 -13.1324 439.5H-58.9839V312.069Z" fill="#FF3333"/>
<path fill-rule="evenodd" clip-rule="evenodd" d="M30.4526 331.978L72.4526 325.257C114.453 317.864 199.453 304.422 283.453 325.257C367.453 345.419 451.453 399.858 536.453 416.66C620.453 433.462 704.453 413.299 788.453 396.497C873.453 379.023 957.453 365.582 999.453 358.861L1041.45 352.14V494.621H999.453C957.453 494.621 873.453 494.621 788.453 494.621C704.453 494.621 620.453 494.621 536.453 494.621C451.453 494.621 367.453 494.621 283.453 494.621C199.453 494.621 114.453 494.621 72.4526 494.621H30.4526V331.978Z" fill="#FF6666"/>
<path fill-rule="evenodd" clip-rule="evenodd" d="M-313.695 599.483L-257.398 588.266C-201.101 576.301 -87.1672 553.866 25.4267 520.214C138.021 485.813 250.615 440.944 364.549 417.761C477.143 395.326 589.737 395.326 702.331 399.065C816.265 402.804 928.859 410.283 985.156 414.022L1041.45 417.761V621.918H985.156C928.859 621.918 816.265 621.918 702.331 621.918C589.737 621.918 477.143 621.918 364.549 621.918C250.615 621.918 138.021 621.918 25.4267 621.918C-87.1672 621.918 -201.101 621.918 -257.398 621.918H-313.695V599.483Z" fill="#FF9999"/>
<path fill-rule="evenodd" clip-rule="evenodd" d="M30.4526 464.001L72.5776 482.001C114.703 500.001 198.953 536.001 283.203 548.001C367.453 560.001 451.703 548.001 535.953 524.001C620.203 500.001 704.453 464.001 788.703 464.001C872.953 464.001 957.203 500.001 999.328 518.001L1041.45 536.001V716.001H999.328C957.203 716.001 872.953 716.001 788.703 716.001C704.453 716.001 620.203 716.001 535.953 716.001C451.703 716.001 367.453 716.001 283.203 716.001C198.953 716.001 114.703 716.001 72.5776 716.001H30.4526V464.001Z" fill="#FFCCCC"/>
</g>
</g>
<defs>
<filter id="filter0_d_6_74" x="0.452637" y="0.000244141" width="1071" height="698" filterUnits="userSpaceOnUse" color-interpolation-filters="sRGB">
<feFlood flood-opacity="0" result="BackgroundImageFix"/>
<feColorMatrix in="SourceAlpha" type="matrix" values="0 0 0 0 0 0 0 0 0 0 0 0 0 0 0 0 0 0 127 0" result="hardAlpha"/>
<feOffset dy="4"/>
<feGaussianBlur stdDeviation="15"/>
<feComposite in2="hardAlpha" operator="out"/>
<feColorMatrix type="matrix" values="0 0 0 0 0 0 0 0 0 0 0 0 0 0 0 0 0 0 0.46 0"/>
<feBlend mode="normal" in2="BackgroundImageFix" result="effect1_dropShadow_6_74"/>
<feBlend mode="normal" in="SourceGraphic" in2="effect1_dropShadow_6_74" result="shape"/>
</filter>
<clipPath id="clip0_6_74">
<rect x="30.4526" y="26.0002" width="1011" height="638" rx="37.5" fill="white"/>
</clipPath>
</defs>
</svg>
