<svg width="128" height="79" viewBox="0 0 128 79" fill="none" xmlns="http://www.w3.org/2000/svg">
<path d="M80.9076 70.6605H46.4965V9.32959H80.9076V70.6605Z" fill="#FF5F00"/>
<path d="M48.7011 39.9951C48.7011 27.5539 54.5748 16.4716 63.7217 9.32968C57.0328 4.10719 48.591 0.990051 39.4166 0.990051C17.6971 0.990051 0.0909424 18.4529 0.0909424 39.9951C0.0909424 61.5373 17.6971 79.0002 39.4166 79.0002C48.591 79.0002 57.0328 75.8831 63.7217 70.6606C54.5748 63.5187 48.7011 52.4364 48.7011 39.9951Z" fill="#EB001B"/>
<path d="M127.318 39.9951C127.318 61.5373 109.712 79.0002 87.992 79.0002C78.8176 79.0002 70.3758 75.8831 63.6844 70.6606C72.8339 63.5187 78.7076 52.4364 78.7076 39.9951C78.7076 27.5539 72.8339 16.4716 63.6844 9.32968C70.3758 4.10719 78.8176 0.990051 87.992 0.990051C109.712 0.990051 127.318 18.4529 127.318 39.9951Z" fill="#F79E1B"/>
</svg>
